<?xml version="1.0" encoding="UTF-8"?>
<svg version="1.1" xmlns="http://www.w3.org/2000/svg" width="500" height="500">
<path d="M0 0 C4.49477894 1.48806741 6.16828353 5.01337541 8.4375 8.875 C9.3131324 10.32150793 10.1908415 11.76676021 11.0703125 13.2109375 C11.53856445 13.98276367 12.00681641 14.75458984 12.48925781 15.54980469 C15.18297789 19.9186112 18.00192269 24.20580647 20.8125 28.5 C21.88210013 30.13503104 22.95113177 31.77043415 24.01953125 33.40625 C24.52049316 34.17066406 25.02145508 34.93507812 25.53759766 35.72265625 C27.40685777 38.63358419 29.1789761 41.59970981 30.9284668 44.58398438 C31.45887573 45.28491211 31.45887573 45.28491211 32 46 C32.66 46 33.32 46 34 46 C35.21137853 44.43789328 35.21137853 44.43789328 36.36328125 42.36328125 C36.83193604 41.56801025 37.30059082 40.77273926 37.78344727 39.95336914 C38.28803467 39.08188232 38.79262207 38.21039551 39.3125 37.3125 C40.38919288 35.48353117 41.46736962 33.65543523 42.546875 31.828125 C43.10955078 30.87357422 43.67222656 29.91902344 44.25195312 28.93554688 C47.12750221 24.10655216 50.09348911 19.33441061 53.0625 14.5625 C57.5816224 7.31203616 57.5816224 7.31203616 62 0 C65.43595166 1.52708963 68.11912454 3.59927045 71 6 C69.60233767 9.78801669 67.8508857 13.07756733 65.7265625 16.5078125 C65.07139648 17.56822754 64.41623047 18.62864258 63.74121094 19.72119141 C63.22246399 20.55472137 63.22246399 20.55472137 62.6932373 21.40509033 C61.614716 23.1415577 60.54530856 24.88336895 59.47753906 26.62646484 C56.14372806 32.05136686 52.75744503 37.41836353 49.1328125 42.65625 C48.55837402 43.50300293 47.98393555 44.34975586 47.39208984 45.22216797 C46.3228719 46.78672981 45.22779501 48.33402766 44.10400391 49.85986328 C42.7088597 51.92189878 41.67479911 53.60316774 41 56 C41.63413041 59.13092248 43.19840322 61.39921738 45 64 C45.6482373 65.03930664 45.6482373 65.03930664 46.30957031 66.09960938 C47.75202417 68.40546752 49.24562843 70.67159084 50.75 72.9375 C51.91623295 74.71297158 53.08155562 76.48904133 54.24609375 78.265625 C54.8582373 79.19826172 55.47038086 80.13089844 56.10107422 81.09179688 C59.37238502 86.10180643 62.59172963 91.14490757 65.8125 96.1875 C66.48313477 97.23671631 67.15376953 98.28593262 67.84472656 99.36694336 C69.21392821 101.5092971 70.58290522 103.65179442 71.95166016 105.79443359 C75.29813379 111.03152522 78.64926658 116.26563323 82 121.5 C83.33335644 123.58331855 84.66668975 125.66665189 86 127.75 C86.66 128.78125 87.32 129.8125 88 130.875 C110 165.25 110 165.25 112.0012207 168.37695312 C113.33042957 170.45381154 114.65969362 172.53063463 115.98901367 174.60742188 C119.38591186 179.91452872 122.78175767 185.22230424 126.17578125 190.53125 C132.39920759 200.26403385 138.63009586 209.99114516 144.91918945 219.68164062 C149.25783853 226.37717675 153.53167149 233.11363175 157.80908203 239.84838867 C161.34754055 245.41553114 164.90770826 250.96745804 168.5 256.5 C172.59697703 262.8116203 176.6516616 269.14911683 180.6875 275.5 C190.28075195 290.59598697 199.88944847 305.68276284 209.625 320.6875 C214.27066117 327.8481121 218.85941644 335.04411726 223.43334961 342.25073242 C226.72059085 347.42769911 230.02229467 352.5949204 233.34375 357.75 C234.07468082 358.88603222 234.80555682 360.0220997 235.53637695 361.15820312 C236.94130608 363.3407783 238.34859305 365.52183804 239.75854492 367.70117188 C240.39896729 368.69697266 241.03938965 369.69277344 241.69921875 370.71875 C242.26471436 371.59466797 242.83020996 372.47058594 243.4128418 373.37304688 C245.10828356 376.17922337 246.54852174 379.06159568 248 382 C238.4231371 382.81920353 228.98753342 383.11913791 219.37548828 383.02172852 C217.97442963 383.01155101 216.57336736 383.0018613 215.17230225 382.99261475 C211.4170019 382.96648052 207.6617884 382.93363603 203.90655375 382.89946485 C199.9641711 382.86477243 196.02174262 382.83642022 192.07931519 382.80735779 C184.63530534 382.75153859 177.19135289 382.69012555 169.74740493 382.62663645 C159.67317934 382.54104315 149.59888693 382.46422547 139.52459526 382.38688183 C123.68299998 382.26503224 107.84152442 382.13157412 92 382 C92 346.36 92 310.72 92 274 C53.06 274 14.12 274 -26 274 C-26 309.64 -26 345.28 -26 382 C-77.48 382 -128.96 382 -182 382 C-177.50331126 373.00662252 -177.50331126 373.00662252 -175.328125 369.72265625 C-174.83723389 368.97540283 -174.34634277 368.22814941 -173.84057617 367.45825195 C-173.31568604 366.66765381 -172.7907959 365.87705566 -172.25 365.0625 C-171.08376705 363.28702842 -169.91844438 361.51095867 -168.75390625 359.734375 C-168.1417627 358.80173828 -167.52961914 357.86910156 -166.89892578 356.90820312 C-163.62761498 351.89819357 -160.40827037 346.85509243 -157.1875 341.8125 C-156.51686523 340.76328369 -155.84623047 339.71406738 -155.15527344 338.63305664 C-153.78607179 336.4907029 -152.41709478 334.34820558 -151.04833984 332.20556641 C-147.70186624 326.96847481 -144.35076868 321.73434416 -141 316.5 C-136.93995508 310.15717688 -132.88067194 303.81387091 -128.82421875 297.46875 C-122.64265248 287.80133809 -116.4544345 278.13894635 -110.21044922 268.51171875 C-104.12489278 259.11962426 -98.10859489 249.68297342 -92.08056641 240.25390625 C-88.06004289 233.96599996 -84.03580226 227.68047221 -80.01220703 221.39453125 C-76.61493058 216.08675506 -73.21865583 210.77834256 -69.82421875 205.46875 C-63.64265248 195.80133809 -57.4544345 186.13894635 -51.21044922 176.51171875 C-45.12489278 167.11962426 -39.10859489 157.68297342 -33.08056641 148.25390625 C-29.06004289 141.96599996 -25.03580226 135.68047221 -21.01220703 129.39453125 C-17.61493058 124.08675506 -14.21865583 118.77834256 -10.82421875 113.46875 C-4.98721752 104.34038193 0.85072308 95.2132797 6.75 86.125 C10.73585178 79.9758319 14.69373015 73.80921683 18.625 67.625 C19.14674805 66.80918457 19.66849609 65.99336914 20.20605469 65.15283203 C20.68719727 64.39341309 21.16833984 63.63399414 21.6640625 62.8515625 C22.30529053 61.84343506 22.30529053 61.84343506 22.95947266 60.81494141 C24.15187587 58.87355059 24.15187587 58.87355059 25 56 C23.75256329 53.79203703 22.46363738 51.80975002 21 49.75 C20.07520418 48.40736353 19.15214285 47.06353134 18.23046875 45.71875 C17.71790527 44.97496094 17.2053418 44.23117188 16.67724609 43.46484375 C13.48481218 38.77331351 10.40583172 34.00719259 7.3125 29.25 C6.38727539 27.83219238 6.38727539 27.83219238 5.44335938 26.38574219 C1.25001887 19.95252237 -2.88961851 13.4865112 -7 7 C-4.78071806 4.09197539 -3.07030857 2.04687238 0 0 Z " fill="#6C3BD0" transform="translate(219,0)"/>
<path d="M0 0 C4.47894321 -0.11712011 8.95748714 -0.1875608 13.4375 -0.25 C14.69755859 -0.28351563 15.95761719 -0.31703125 17.25585938 -0.3515625 C26.26725098 -0.44567625 32.7038445 0.5630756 39.8125 6.25 C46.4931369 14.64851496 47.04673713 22.53262869 46 33 C44.39592789 39.32137291 40.30033682 43.40655131 35 47 C24.22725388 52.89452146 11.77575806 50.83379551 0 50 C0 49.34 0 48.68 0 48 C0.99 47.34 1.98 46.68 3 46 C3.45600276 44.12494713 3.45600276 44.12494713 3.38818359 41.94921875 C3.39764008 41.11495361 3.40709656 40.28068848 3.4168396 39.42114258 C3.41076691 38.51904053 3.40469421 37.61693848 3.3984375 36.6875 C3.40130768 35.76283936 3.40417786 34.83817871 3.40713501 33.88549805 C3.40917849 31.92854196 3.40362882 29.97156557 3.39111328 28.01464844 C3.37506364 25.01190707 3.39095237 22.01051179 3.41015625 19.0078125 C3.40817387 17.10937202 3.4043303 15.21093237 3.3984375 13.3125 C3.40451019 12.41039795 3.41058289 11.5082959 3.4168396 10.57885742 C3.40265488 9.32745972 3.40265488 9.32745972 3.38818359 8.05078125 C3.38579681 7.31512939 3.38341003 6.57947754 3.38095093 5.8215332 C3.13505173 3.5838448 3.13505173 3.5838448 0 2 C0 1.34 0 0.68 0 0 Z M16 2 C16 17.18 16 32.36 16 48 C23.19095817 48.10168076 23.19095817 48.10168076 29 45 C33.5809337 38.83943399 33.21133261 32.56813841 33.25 25.1875 C33.270625 24.21490234 33.29125 23.24230469 33.3125 22.24023438 C33.35071659 15.18449632 32.35616102 10.58136475 28.4375 4.625 C25.09216164 2.11947153 25.09216164 2.11947153 16 2 Z " fill="#7447CE" transform="translate(275,396)"/>
<path d="M0 0 C5.13580853 -1.23000456 10.01598624 -2.01473995 15 0 C20.2476052 4.52229421 23.79032446 10.75208711 27.44140625 16.56689453 C29.5830912 19.91025797 31.9523109 23.04557508 34.375 26.1875 C35.58453354 27.79076191 36.79309111 29.39476137 38 31 C38.02898097 26.89584811 38.0467922 22.79172247 38.0625 18.6875 C38.07506836 16.93663086 38.07506836 16.93663086 38.08789062 15.15039062 C38.09111328 14.03212891 38.09433594 12.91386719 38.09765625 11.76171875 C38.10289307 10.73006592 38.10812988 9.69841309 38.11352539 8.63549805 C38.11635 5.89053726 38.11635 5.89053726 37 3 C36.01 2.67 35.02 2.34 34 2 C34 1.34 34 0.68 34 0 C37.63 0 41.26 0 45 0 C45 0.66 45 1.32 45 2 C44.01 2 43.02 2 42 2 C41.67 18.17 41.34 34.34 41 51 C36 51 36 51 34.35351562 49.54150391 C33.87591797 48.86007324 33.39832031 48.17864258 32.90625 47.4765625 C32.35662598 46.71061768 31.80700195 45.94467285 31.24072266 45.15551758 C30.66628418 44.32044678 30.0918457 43.48537598 29.5 42.625 C28.89849121 41.77897217 28.29698242 40.93294434 27.67724609 40.0612793 C26.4148104 38.28448747 25.15891387 36.50303362 23.90917969 34.71728516 C21.43385204 31.19421653 18.90666094 27.7101965 16.37695312 24.22607422 C13.90791599 20.82461085 11.45355023 17.4126429 9 14 C8.90096527 18.48398784 8.82845517 22.96739292 8.78027344 27.45214844 C8.76018401 28.97700085 8.73290684 30.50177648 8.69824219 32.02636719 C8.64960204 34.22089598 8.62700604 36.41440469 8.609375 38.609375 C8.58842773 39.92905273 8.56748047 41.24873047 8.54589844 42.60839844 C8.72184542 46.53119952 8.72184542 46.53119952 13 50 C8.71 50 4.42 50 0 50 C1 48 1 48 4 47 C4.09891077 41.23426315 4.17148845 35.4690206 4.21972656 29.70263672 C4.23983632 27.74128619 4.26712818 25.77999556 4.30175781 23.81884766 C4.35030421 20.99887305 4.37297486 18.17969135 4.390625 15.359375 C4.41127014 14.48319519 4.43191528 13.60701538 4.45318604 12.70428467 C4.52605934 7.70443787 4.52605934 7.70443787 1.97558594 3.54003906 C1.32364258 3.03182617 0.67169922 2.52361328 0 2 C0 1.34 0 0.68 0 0 Z " fill="#784CD0" transform="translate(226,396)"/>
<path d="M0 0 C12.54 0 25.08 0 38 0 C37.00725885 4.96370576 35.2887102 8.44870616 32.8125 12.75 C31.91527846 14.33588878 31.01814867 15.92182947 30.12109375 17.5078125 C29.62851074 18.3730957 29.13592773 19.23837891 28.62841797 20.12988281 C26.16342236 24.47448376 23.7291422 28.83616105 21.29174805 33.19628906 C18.53190494 38.13314253 15.76586632 43.06651933 13 48 C24.0534606 48.84462358 24.0534606 48.84462358 33.71875 44.70703125 C35.38770904 42.20005676 36.7371468 39.72875338 38 37 C38.33 37 38.66 37 39 37 C39 41.29 39 45.58 39 50 C25.8 50 12.6 50 -1 50 C0.51757982 45.44726053 1.93172559 42.03234811 4.23046875 37.9296875 C4.86919922 36.785 5.50792969 35.6403125 6.16601562 34.4609375 C6.83981464 33.26560859 7.51364286 32.07029614 8.1875 30.875 C8.84224194 29.7033736 9.49654208 28.5315002 10.15039062 27.359375 C13.89460073 20.66358532 17.72240306 14.02273848 21.64575195 7.43017578 C23.10993057 4.97949187 23.10993057 4.97949187 24 2 C21.58073961 2.06018061 19.16751328 2.14722217 16.75 2.25 C15.72712891 2.27126953 15.72712891 2.27126953 14.68359375 2.29296875 C11.29875255 2.45728143 9.3311693 2.74290804 6.625 4.84375 C4.68737731 7.41482626 3.33005834 10.07387166 2 13 C1.34 13 0.68 13 0 13 C0 8.71 0 4.42 0 0 Z " fill="#7043CA" transform="translate(135,396)"/>
<path d="M0 0 C2.64 0 5.28 0 8 0 C11.00579771 6.80940999 13.64198057 13.66972203 16.0078125 20.72265625 C16.39015045 21.86122574 16.39015045 21.86122574 16.7802124 23.02279663 C17.83395839 26.17275597 18.88183301 29.3245754 19.92138672 32.47924805 C20.69244131 34.81305236 21.47437682 37.1429842 22.2578125 39.47265625 C22.48912872 40.18511002 22.72044495 40.89756378 22.95877075 41.63160706 C24.2215714 45.36425628 25.14071934 47.14071934 28 50 C21.4 50 14.8 50 8 50 C8.33 49.34 8.66 48.68 9 48 C9.66 48 10.32 48 11 48 C9.68 43.71 8.36 39.42 7 35 C1.72 34.67 -3.56 34.34 -9 34 C-10.56788252 40.98564588 -10.56788252 40.98564588 -12 48 C-11.01 48.33 -10.02 48.66 -9 49 C-9 49.33 -9 49.66 -9 50 C-12.63 50 -16.26 50 -20 50 C-20 49.34 -20 48.68 -20 48 C-19.37965881 47.76177521 -18.75931763 47.52355042 -18.12017822 47.27810669 C-15.42876539 45.65564274 -15.07543614 44.49685184 -14.07714844 41.55029297 C-13.59710358 40.16908768 -13.59710358 40.16908768 -13.10736084 38.75997925 C-12.61335785 37.26617233 -12.61335785 37.26617233 -12.109375 35.7421875 C-11.75989807 34.72399933 -11.41042114 33.70581116 -11.050354 32.6567688 C-9.93632738 29.40072655 -8.84299609 26.13815471 -7.75 22.875 C-6.99874751 20.66750829 -6.24615973 18.46047051 -5.4921875 16.25390625 C-3.64592664 10.84111129 -1.81661297 5.42281224 0 0 Z M-1 11 C-2.00777029 13.74737377 -3.00641446 16.49749952 -4 19.25 C-4.28617187 20.02730469 -4.57234375 20.80460937 -4.8671875 21.60546875 C-5.13789063 22.35957031 -5.40859375 23.11367188 -5.6875 23.890625 C-5.93886719 24.58188477 -6.19023437 25.27314453 -6.44921875 25.98535156 C-7.17580721 28.29497112 -7.17580721 28.29497112 -7 32 C-2.38 32 2.24 32 7 32 C4.69 25.07 2.38 18.14 0 11 C-0.33 11 -0.66 11 -1 11 Z " fill="#7142CE" transform="translate(343,396)"/>
<path d="M0 0 C2.64 0 5.28 0 8 0 C10.57745419 6.05986012 12.79113222 12.21430803 14.875 18.45703125 C15.12830078 19.2128952 15.38160156 19.96875916 15.64257812 20.74752808 C16.6983977 23.90245886 17.75194922 27.05801221 18.79101562 30.21850586 C19.55962167 32.55126335 20.34124831 34.87932581 21.125 37.20703125 C21.46893799 38.26963921 21.46893799 38.26963921 21.81982422 39.35371399 C23.36230259 43.89257838 24.85969697 46.07462121 28 50 C21.4 50 14.8 50 8 50 C8.66 48.35 9.32 46.7 10 45 C9.60832805 42.29342808 9.60832805 42.29342808 8.625 39.6875 C8.08875 38.140625 7.5525 36.59375 7 35 C1.72 34.67 -3.56 34.34 -9 34 C-9.556875 36.083125 -10.11375 38.16625 -10.6875 40.3125 C-11.00074219 41.48425781 -11.31398437 42.65601563 -11.63671875 43.86328125 C-11.81654297 45.41595703 -11.81654297 45.41595703 -12 47 C-11.01 47.99 -10.02 48.98 -9 50 C-12.96 50 -16.92 50 -21 50 C-20 48 -20 48 -17 47 C-15.65685687 44.35499667 -15.65685687 44.35499667 -14.5 40.875 C-14.26007324 40.20791016 -14.02014648 39.54082031 -13.77294922 38.85351562 C-13.19698775 37.24511811 -12.62712913 35.63452929 -12.06152344 34.02246094 C-10.77419803 30.35707719 -9.46912587 26.69815971 -8.1640625 23.0390625 C-5.42927316 15.3641049 -2.71116827 7.68333219 0 0 Z M-1 11 C-3.31 17.93 -5.62 24.86 -8 32 C-3.38 32 1.24 32 6 32 C4.55613874 24.78069368 2.42211826 17.94889267 0 11 C-0.33 11 -0.66 11 -1 11 Z " fill="#7346CC" transform="translate(196,396)"/>
<path d="M0 0 C3.40212299 1.61382757 6.10324519 3.58603766 9 6 C7.60233767 9.78801669 5.8508857 13.07756733 3.7265625 16.5078125 C3.07179932 17.56887207 2.41703613 18.62993164 1.74243164 19.72314453 C1.03683826 20.8572315 0.3310234 21.99118069 -0.375 23.125 C-1.09468869 24.28616775 -1.8141695 25.44746438 -2.53344727 26.60888672 C-4.68309695 30.0762618 -6.84138779 33.53819774 -9 37 C-9.6305127 38.01449219 -10.26102539 39.02898438 -10.91064453 40.07421875 C-12.5815201 42.76081441 -14.25792828 45.44383447 -15.9375 48.125 C-16.43878418 48.92953613 -16.94006836 49.73407227 -17.45654297 50.56298828 C-18.60997634 52.39309171 -19.8005407 54.19972655 -21 56 C-21.33 56 -21.66 56 -22 56 C-22.66 51.71 -23.32 47.42 -24 43 C-24.99 43.495 -24.99 43.495 -26 44 C-24.72806058 40.61225616 -23.27105687 37.61333183 -21.34765625 34.55078125 C-20.82324951 33.7105542 -20.29884277 32.87032715 -19.75854492 32.00463867 C-18.91900269 30.67203003 -18.91900269 30.67203003 -18.0625 29.3125 C-16.89274852 27.44040441 -15.72348714 25.5680025 -14.5546875 23.6953125 C-13.96397461 22.75075195 -13.37326172 21.80619141 -12.76464844 20.83300781 C-10.04543761 16.46752324 -7.36454736 12.07892583 -4.6875 7.6875 C-4.2138501 6.91124268 -3.7402002 6.13498535 -3.25219727 5.33520508 C-2.1675618 3.55715079 -1.08368519 1.77863362 0 0 Z " fill="#7142CF" transform="translate(281,0)"/>
<path d="M0 0 C4.5469683 2.27348415 5.97073723 4.67669627 8.4375 8.875 C9.31304191 10.32286367 10.19075549 11.76941568 11.0703125 13.21484375 C11.53856445 13.98683105 12.00681641 14.75881836 12.48925781 15.55419922 C15.69487208 20.74389602 19.08203084 25.81915291 22.44506836 30.90771484 C25.88115589 36.14736204 29.03678429 41.47895696 32 47 C31.34 47 30.68 47 30 47 C30 46.34 30 45.68 30 45 C29.34 45 28.68 45 28 45 C28 45.66 28 46.32 28 47 C27.01 47.33 26.02 47.66 25 48 C24.34 47.34 23.68 46.68 23 46 C23.66 44.68 24.32 43.36 25 42 C24.01 42.66 23.02 43.32 22 44 C21.7497843 47.08365871 21.7497843 47.08365871 22 50 C18.28763995 46.65209539 15.92744434 42.92326588 13.375 38.6875 C9.92919312 33.06083541 6.38660452 27.52594326 2.6875 22.0625 C-0.83635284 16.84333678 -4.0634493 11.57944633 -7 6 C-4.69 4.02 -2.38 2.04 0 0 Z " fill="#7D53CF" transform="translate(219,0)"/>
<path d="M0 0 C3.96 0 7.92 0 12 0 C12.33 15.84 12.66 31.68 13 48 C9.04 48 5.08 48 1 48 C0.67 32.16 0.34 16.32 0 0 Z " fill="#6B3ACE" transform="translate(278,397)"/>
<path d="M0 0 C3.24044458 2.56535196 4.69560167 4.086805 6 8 C6.34547151 13.35480837 6.46362011 16.6384043 3 21 C-0.68486768 23.45657845 -2.65013547 23.07631341 -7 23 C-7.7425 23.20625 -8.485 23.4125 -9.25 23.625 C-9.8275 23.74875 -10.405 23.8725 -11 24 C-11.99 23.34 -12.98 22.68 -14 22 C-14.29296875 19.25 -14.29296875 19.25 -14.1875 16 C-14.14689453 14.39125 -14.14689453 14.39125 -14.10546875 12.75 C-14.07066406 11.8425 -14.03585938 10.935 -14 10 C-14 9.34 -14 8.68 -14 8 C-16.50883322 11.76324983 -16.67079095 15.63538689 -16 20 C-14.85998345 22.72482126 -14.85998345 22.72482126 -12 24 C-8.3085939 24.31868254 -4.69473274 24.22932824 -1 24 C-1 25.65 -1 27.3 -1 29 C-3.06132142 29.10864945 -5.12431321 29.18588321 -7.1875 29.25 C-8.91033203 29.31960938 -8.91033203 29.31960938 -10.66796875 29.390625 C-14.68599772 28.91957823 -16.18842362 27.85652165 -19 25 C-21.87210532 20.67882643 -21.4995131 16.00305981 -21 11 C-19.20646165 5.71902596 -16.39000798 3.20104749 -12 0 C-7.8213874 -1.39287087 -4.24905937 -1.10326454 0 0 Z M-12 5 C-9.57869669 6.21065165 -8.51706341 5.94602533 -5.875 5.5625 C-4.59625 5.376875 -3.3175 5.19125 -2 5 C-6.11452026 2.2569865 -7.88832698 2.73149075 -12 5 Z M-1 6 C-1.8723412 8.99480917 -2.10829766 11.63575911 -2.0625 14.75 C-2.05347656 15.54921875 -2.04445312 16.3484375 -2.03515625 17.171875 C-2.02355469 17.77515625 -2.01195312 18.3784375 -2 19 C0.82790258 16.70232915 1.91278296 15.61051925 2.4375 11.9375 C1.96865123 8.7895154 1.49619254 7.87214441 -1 6 Z M-9 10 C-9.33 12.64 -9.66 15.28 -10 18 C-9.01 18.33 -8.02 18.66 -7 19 C-6.67 16.36 -6.34 13.72 -6 11 C-6.99 10.67 -7.98 10.34 -9 10 Z " fill="#9677D2" transform="translate(258,457)"/>
<path d="M0 0 C2.64 0 5.28 0 8 0 C10.87884807 6.59278183 13.50865808 12.95001999 15 20 C14.34 19.67 13.68 19.34 13 19 C13 18.01 13 17.02 13 16 C9.25332798 17.6327851 9.25332798 17.6327851 6 20 C5.63557767 21.66014616 5.30027117 23.32706064 5 25 C3.20931427 22.3139714 2.33944209 20.3373411 1.375 17.3125 C0.98441406 16.10013672 0.98441406 16.10013672 0.5859375 14.86328125 C0.39257812 14.24839844 0.19921875 13.63351562 0 13 C-2.57616518 19.2638737 -4.94235079 25.54646385 -7 32 C-6.02417969 31.96519531 -5.04835938 31.93039062 -4.04296875 31.89453125 C-2.77066406 31.86746094 -1.49835938 31.84039062 -0.1875 31.8125 C1.07707031 31.77769531 2.34164063 31.74289062 3.64453125 31.70703125 C7 32 7 32 8.94921875 33.51171875 C9.29597656 34.00285156 9.64273437 34.49398437 10 35 C9.34 35.66 8.68 36.32 8 37 C7.67 36.34 7.34 35.68 7 35 C4.28553021 34.68758545 1.66090639 34.48663408 -1.0625 34.375 C-1.82111328 34.33632813 -2.57972656 34.29765625 -3.36132812 34.2578125 C-5.24047195 34.16326438 -7.12020336 34.08053244 -9 34 C-10.56901859 40.98533796 -10.56901859 40.98533796 -12 48 C-11.01 48.33 -10.02 48.66 -9 49 C-9 49.33 -9 49.66 -9 50 C-12.63 50 -16.26 50 -20 50 C-20 49.34 -20 48.68 -20 48 C-19.37965881 47.76177521 -18.75931763 47.52355042 -18.12017822 47.27810669 C-15.42876539 45.65564274 -15.07543614 44.49685184 -14.07714844 41.55029297 C-13.59710358 40.16908768 -13.59710358 40.16908768 -13.10736084 38.75997925 C-12.61335785 37.26617233 -12.61335785 37.26617233 -12.109375 35.7421875 C-11.75989807 34.72399933 -11.41042114 33.70581116 -11.050354 32.6567688 C-9.93632738 29.40072655 -8.84299609 26.13815471 -7.75 22.875 C-6.99874751 20.66750829 -6.24615973 18.46047051 -5.4921875 16.25390625 C-3.64592664 10.84111129 -1.81661297 5.42281224 0 0 Z " fill="#7448CD" transform="translate(343,396)"/>
<path d="M0 0 C2.64 0 5.28 0 8 0 C10.50710309 5.93915684 12.60061654 11.70277443 14 18 C11.48916886 16.74458443 11.12874554 15.49936512 10 13 C9.34 13.66 8.68 14.32 8 15 C7.34 14.67 6.68 14.34 6 14 C6.10699219 14.61488281 6.21398437 15.22976563 6.32421875 15.86328125 C6.44410156 16.67152344 6.56398437 17.47976563 6.6875 18.3125 C6.87892578 19.51326172 6.87892578 19.51326172 7.07421875 20.73828125 C7 23 7 23 5.51953125 24.79296875 C5.01808594 25.19128906 4.51664063 25.58960938 4 26 C3.58427734 24.71802734 3.58427734 24.71802734 3.16015625 23.41015625 C2.79792969 22.30542969 2.43570313 21.20070313 2.0625 20.0625 C1.52302734 18.40927734 1.52302734 18.40927734 0.97265625 16.72265625 C0.26143332 14.11876525 0.26143332 14.11876525 -1 13 C-1.16604736 13.54003662 -1.33209473 14.08007324 -1.50317383 14.63647461 C-2.26043028 17.07424677 -3.0361714 19.50573784 -3.8125 21.9375 C-4.07353516 22.78763672 -4.33457031 23.63777344 -4.60351562 24.51367188 C-4.86455078 25.32255859 -5.12558594 26.13144531 -5.39453125 26.96484375 C-5.63018799 27.7137085 -5.86584473 28.46257324 -6.10864258 29.23413086 C-7 31 -7 31 -10 32 C-9.70802734 32.81210937 -9.70802734 32.81210937 -9.41015625 33.640625 C-8.87686812 36.70830146 -9.55316421 38.77863174 -10.4375 41.75 C-10.72496094 42.73484375 -11.01242188 43.7196875 -11.30859375 44.734375 C-11.53675781 45.48203125 -11.76492187 46.2296875 -12 47 C-11.01 47.99 -10.02 48.98 -9 50 C-12.96 50 -16.92 50 -21 50 C-20 48 -20 48 -17 47 C-15.65685687 44.35499667 -15.65685687 44.35499667 -14.5 40.875 C-14.26007324 40.20791016 -14.02014648 39.54082031 -13.77294922 38.85351562 C-13.19698775 37.24511811 -12.62712913 35.63452929 -12.06152344 34.02246094 C-10.77419803 30.35707719 -9.46912587 26.69815971 -8.1640625 23.0390625 C-5.42927316 15.3641049 -2.71116827 7.68333219 0 0 Z " fill="#7C53CF" transform="translate(196,396)"/>
<path d="M0 0 C3.63 0 7.26 0 11 0 C11 0.66 11 1.32 11 2 C10.01 2 9.02 2 8 2 C7.67 18.17 7.34 34.34 7 51 C5.35 51 3.7 51 2 51 C-0.11147393 48.80743106 -1.72523169 46.84523905 -3.4375 44.375 C-3.90865234 43.75753906 -4.37980469 43.14007813 -4.86523438 42.50390625 C-6.15387254 40.69026735 -7.19737879 39.07611353 -8 37 C-7.34765625 33.6640625 -7.34765625 33.6640625 -6 31 C-5.67 30.34 -5.34 29.68 -5 29 C-2.08482708 30.07401108 -0.22189824 30.77810176 2 33 C2.66 33 3.32 33 4 33 C4.02896822 28.56251365 4.04678788 24.12505153 4.0625 19.6875 C4.07087891 18.42486328 4.07925781 17.16222656 4.08789062 15.86132812 C4.09111328 14.65283203 4.09433594 13.44433594 4.09765625 12.19921875 C4.10289307 11.08377686 4.10812988 9.96833496 4.11352539 8.8190918 C4.12749254 5.91947938 4.12749254 5.91947938 3 3 C2.01 2.67 1.02 2.34 0 2 C0 1.34 0 0.68 0 0 Z " fill="#6D3BD2" transform="translate(260,396)"/>
<path d="M0 0 C0.33 0 0.66 0 1 0 C1 35.64 1 71.28 1 108 C-50.15 108 -101.3 108 -154 108 C-153.67 107.01 -153.34 106.02 -153 105 C-151.515 104.505 -151.515 104.505 -150 104 C-150 104.99 -150 105.98 -150 107 C-100.5 107 -51 107 0 107 C0 71.69 0 36.38 0 0 Z " fill="#6740B3" transform="translate(191,274)"/>
<path d="M0 0 C4.95 0 9.9 0 15 0 C15.33 1.65 15.66 3.3 16 5 C14.68 5.33 13.36 5.66 12 6 C12 8.64 12 11.28 12 14 C11.01 14 10.02 14 9 14 C8.90096527 18.48398784 8.82845517 22.96739292 8.78027344 27.45214844 C8.76018401 28.97700085 8.73290684 30.50177648 8.69824219 32.02636719 C8.64960204 34.22089598 8.62700604 36.41440469 8.609375 38.609375 C8.58842773 39.92905273 8.56748047 41.24873047 8.54589844 42.60839844 C8.72184542 46.53119952 8.72184542 46.53119952 13 50 C8.71 50 4.42 50 0 50 C1 48 1 48 4 47 C4.09891077 41.23426315 4.17148845 35.4690206 4.21972656 29.70263672 C4.23983632 27.74128619 4.26712818 25.77999556 4.30175781 23.81884766 C4.35030421 20.99887305 4.37297486 18.17969135 4.390625 15.359375 C4.41127014 14.48319519 4.43191528 13.60701538 4.45318604 12.70428467 C4.52605934 7.70443787 4.52605934 7.70443787 1.97558594 3.54003906 C1.32364258 3.03182617 0.67169922 2.52361328 0 2 C0 1.34 0 0.68 0 0 Z " fill="#9C7ADA" transform="translate(226,396)"/>
<path d="M0 0 C4.47894321 -0.11712011 8.95748714 -0.1875608 13.4375 -0.25 C14.69755859 -0.28351563 15.95761719 -0.31703125 17.25585938 -0.3515625 C26.36629501 -0.44671065 32.84485747 0.55211577 39.9375 6.4375 C41.93793212 8.92288536 43.04823248 10.97164881 44 14 C42.68 13.67 41.36 13.34 40 13 C40 11.68 40 10.36 40 9 C38.35 9.33 36.7 9.66 35 10 C34.67 17.59 34.34 25.18 34 33 C33.67 33 33.34 33 33 33 C32.94392578 31.09927734 32.94392578 31.09927734 32.88671875 29.16015625 C32.82100207 27.46091069 32.75455677 25.7616932 32.6875 24.0625 C32.65366211 22.81629883 32.65366211 22.81629883 32.61914062 21.54492188 C32.51063513 19.00983897 32.29147703 16.52041902 32 14 C31.91572754 13.16452637 31.83145508 12.32905273 31.74462891 11.46826172 C31.31940071 8.65550093 31.31940071 8.65550093 29 5 C24.71 4.01 20.42 3.02 16 2 C16 17.18 16 32.36 16 48 C15.67 48 15.34 48 15 48 C15 32.49 15 16.98 15 1 C11.37 1.33 7.74 1.66 4 2 C3.67 2.66 3.34 3.32 3 4 C2.01 3.34 1.02 2.68 0 2 C0 1.34 0 0.68 0 0 Z " fill="#9675D7" transform="translate(275,396)"/>
<path d="M0 0 C2.31 0 4.62 0 7 0 C9.58552857 5.17105713 8.40511644 13.10513882 7.1875 18.625 C6 22 6 22 3 24 C0.4375 23.8125 0.4375 23.8125 -2 23 C-4.49166907 19.2624964 -4.13738817 17.60880428 -3.8125 13.1875 C-3.73644531 11.98480469 -3.66039062 10.78210938 -3.58203125 9.54296875 C-2.97551725 5.85096743 -1.83881561 3.23651373 0 0 Z M3 4 C0.40772482 8.86051596 0.81310447 13.65271133 1 19 C3.77042109 16.22957891 3.39796106 14.23466195 3.625 10.375 C3.69976562 9.18648438 3.77453125 7.99796875 3.8515625 6.7734375 C3.90054687 5.85820312 3.94953125 4.94296875 4 4 C3.67 4 3.34 4 3 4 Z " fill="#8867CB" transform="translate(284,457)"/>
<path d="M0 0 C0.66 0.33 1.32 0.66 2 1 C3.38408476 5.7058882 4.04389716 10.68557672 1.98339844 15.25390625 C0.5822721 17.70259424 -0.8995537 20.07245494 -2.4375 22.4375 C-2.95376953 23.26443359 -3.47003906 24.09136719 -4.00195312 24.94335938 C-6.70897931 29.22859952 -6.70897931 29.22859952 -8 31 C-8.33 31 -8.66 31 -9 31 C-9.66 26.71 -10.32 22.42 -11 18 C-11.66 18.33 -12.32 18.66 -13 19 C-12.375 16.625 -12.375 16.625 -11 14 C-7.875 12.6875 -7.875 12.6875 -5 12 C-5 10.68 -5 9.36 -5 8 C-4.34 7.67 -3.68 7.34 -3 7 C-1.94647157 4.69034152 -0.94280904 2.3570226 0 0 Z " fill="#7345D0" transform="translate(268,25)"/>
<path d="M0 0 C2.76371372 10.21817076 -3.66596803 22.37534167 -7 32 C-6.02417969 31.96519531 -5.04835938 31.93039062 -4.04296875 31.89453125 C-2.77066406 31.86746094 -1.49835938 31.84039062 -0.1875 31.8125 C1.07707031 31.77769531 2.34164063 31.74289062 3.64453125 31.70703125 C7 32 7 32 8.94921875 33.51171875 C9.29597656 34.00285156 9.64273437 34.49398437 10 35 C9.34 35.66 8.68 36.32 8 37 C7.67 36.34 7.34 35.68 7 35 C4.28553021 34.68758545 1.66090639 34.48663408 -1.0625 34.375 C-1.82111328 34.33632813 -2.57972656 34.29765625 -3.36132812 34.2578125 C-5.24047195 34.16326438 -7.12020336 34.08053244 -9 34 C-10.56901859 40.98533796 -10.56901859 40.98533796 -12 48 C-11.01 48.33 -10.02 48.66 -9 49 C-9 49.33 -9 49.66 -9 50 C-12.63 50 -16.26 50 -20 50 C-20 49.34 -20 48.68 -20 48 C-19.37965881 47.76177521 -18.75931763 47.52355042 -18.12017822 47.27810669 C-15.42876539 45.65564274 -15.07543614 44.49685184 -14.07714844 41.55029297 C-13.59710358 40.16908768 -13.59710358 40.16908768 -13.10736084 38.75997925 C-12.61335785 37.26617233 -12.61335785 37.26617233 -12.109375 35.7421875 C-11.75989807 34.72399933 -11.41042114 33.70581116 -11.050354 32.6567688 C-9.93632738 29.40072655 -8.84299609 26.13815471 -7.75 22.875 C-6.99874751 20.66750829 -6.24615973 18.46047051 -5.4921875 16.25390625 C-3.64592664 10.84111129 -1.81661297 5.42281224 0 0 Z " fill="#8D74C5" transform="translate(343,396)"/>
<path d="M0 0 C1.65 0 3.3 0 5 0 C4.67 4.29 4.34 8.58 4 13 C4.66 13 5.32 13 6 13 C6 14.32 6 15.64 6 17 C5.01 17 4.02 17 3 17 C3 18.98 3 20.96 3 23 C1.68 23.33 0.36 23.66 -1 24 C-1.33 22.35 -1.66 20.7 -2 19 C-3.65 18.67 -5.3 18.34 -7 18 C-6.44380331 13.3110507 -5.11817327 9.80075733 -2.9375 5.625 C-2.38964844 4.56539063 -1.84179688 3.50578125 -1.27734375 2.4140625 C-0.85582031 1.61742187 -0.43429687 0.82078125 0 0 Z M-1 10 C0 12 0 12 0 12 Z " fill="#8E6DCF" transform="translate(314,457)"/>
<path d="M0 0 C1.45792884 -0.05399736 2.91642712 -0.09279177 4.375 -0.125 C5.18710938 -0.14820313 5.99921875 -0.17140625 6.8359375 -0.1953125 C9 0 9 0 11 2 C11.64027162 7.3283621 10.89497618 12.74201496 10 18 C8.68 18.33 7.36 18.66 6 19 C4.96884721 15.73086376 5.0361016 13.13958652 5.4375 9.75 C5.53933594 8.85796875 5.64117187 7.9659375 5.74609375 7.046875 C5.82988281 6.37140625 5.91367188 5.6959375 6 5 C5.34 4.67 4.68 4.34 4 4 C3.96261719 4.83144531 3.92523438 5.66289062 3.88671875 6.51953125 C3.82097656 7.60621094 3.75523437 8.69289063 3.6875 9.8125 C3.62949219 10.89144531 3.57148438 11.97039062 3.51171875 13.08203125 C2.96859128 16.17910163 2.5389653 17.21332071 0 19 C-0.66 19 -1.32 19 -2 19 C-1.85913398 16.39547729 -1.71251536 13.79149803 -1.5625 11.1875 C-1.50352539 10.08051758 -1.50352539 10.08051758 -1.44335938 8.95117188 C-1.25618965 5.76928658 -1.01279207 3.03837622 0 0 Z " fill="#9676CF" transform="translate(212,462)"/>
<path d="M0 0 C1.60725635 3.21451269 1.05748185 6.43612536 1 10 C-1.64 10 -4.28 10 -7 10 C-6.67 10.66 -6.34 11.32 -6 12 C-3.47266765 12.65555119 -3.47266765 12.65555119 -1 13 C-1 14.32 -1 15.64 -1 17 C-6.36740488 18.34185122 -6.36740488 18.34185122 -9.17578125 16.82421875 C-11 15 -11 15 -11.49609375 12.6953125 C-11.29628072 3.93018086 -11.29628072 3.93018086 -8 0 C-5.09660535 -1.45169732 -3.09125158 -0.72348441 0 0 Z M-5 3 C-5.33 4.32 -5.66 5.64 -6 7 C-5.01 6.67 -4.02 6.34 -3 6 C-3.33 5.01 -3.66 4.02 -4 3 C-4.33 3 -4.66 3 -5 3 Z " fill="#9071CF" transform="translate(207,463)"/>
<path d="M0 0 C3.375 -0.125 3.375 -0.125 7 0 C9 2 9 2 9.3125 4.7578125 C8.95294381 8.48820802 7.88464431 10.6553993 6 13.875 C5.443125 14.84179688 4.88625 15.80859375 4.3125 16.8046875 C3.6628125 17.89136719 3.6628125 17.89136719 3 19 C4.32 18.67 5.64 18.34 7 18 C7.33 19.65 7.66 21.3 8 23 C3.05 23.495 3.05 23.495 -2 24 C-2.61812266 18.18964699 -1.26457829 15.04261419 1.80859375 10.11328125 C2.96941513 8.05425053 3.54687932 6.30726968 4 4 C2.35 4 0.7 4 -1 4 C-0.67 2.68 -0.34 1.36 0 0 Z " fill="#977BD3" transform="translate(269,457)"/>
<path d="M0 0 C6.15234375 -0.09765625 6.15234375 -0.09765625 8 0 C9 1 9 1 9.375 4.5 C9.35575903 9.81050707 6.81899795 13.65068888 4 18 C5.32 18 6.64 18 8 18 C8 19.65 8 21.3 8 23 C5.03 23.33 2.06 23.66 -1 24 C-2.07561622 20.67480929 -2.10282598 19.25756091 -0.78515625 15.95703125 C-0.21667969 14.91933594 0.35179687 13.88164062 0.9375 12.8125 C3.19162586 9.10132418 3.19162586 9.10132418 4 5 C2.68 4.67 1.36 4.34 0 4 C0 2.68 0 1.36 0 0 Z " fill="#8160CA" transform="translate(296,457)"/>
<path d="M0 0 C12.54 0 25.08 0 38 0 C37.67 1.65 37.34 3.3 37 5 C36.34 5 35.68 5 35 5 C35 3.68 35 2.36 35 1 C32.03 1 29.06 1 26 1 C25.9175 2.11375 25.835 3.2275 25.75 4.375 C25 8 25 8 22.9375 9.4375 C22.298125 9.623125 21.65875 9.80875 21 10 C21.309375 9.236875 21.61875 8.47375 21.9375 7.6875 C22.67893593 5.81210323 23.36228217 3.91315348 24 2 C21.58073961 2.06018061 19.16751328 2.14722217 16.75 2.25 C15.72712891 2.27126953 15.72712891 2.27126953 14.68359375 2.29296875 C11.29875255 2.45728143 9.3311693 2.74290804 6.625 4.84375 C4.68737731 7.41482626 3.33005834 10.07387166 2 13 C1.34 13 0.68 13 0 13 C0 8.71 0 4.42 0 0 Z " fill="#886CC4" transform="translate(135,396)"/>
<path d="M0 0 C0.28875 0.61875 0.5775 1.2375 0.875 1.875 C1.93720042 4.13325765 1.93720042 4.13325765 4 6 C3.01 7.485 3.01 7.485 2 9 C1.67 8.67 1.34 8.34 1 8 C0.83395264 8.54003662 0.66790527 9.08007324 0.49682617 9.63647461 C-0.26043028 12.07424677 -1.0361714 14.50573784 -1.8125 16.9375 C-2.07353516 17.78763672 -2.33457031 18.63777344 -2.60351562 19.51367188 C-2.86455078 20.32255859 -3.12558594 21.13144531 -3.39453125 21.96484375 C-3.63018799 22.7137085 -3.86584473 23.46257324 -4.10864258 24.23413086 C-5 26 -5 26 -8 27 C-7.80535156 27.54140625 -7.61070312 28.0828125 -7.41015625 28.640625 C-6.87686812 31.70830146 -7.55316421 33.77863174 -8.4375 36.75 C-8.72496094 37.73484375 -9.01242188 38.7196875 -9.30859375 39.734375 C-9.53675781 40.48203125 -9.76492187 41.2296875 -10 42 C-9.01 42.99 -8.02 43.98 -7 45 C-10.96 45 -14.92 45 -19 45 C-18 43 -18 43 -15 42 C-13.58975808 39.18526533 -13.58975808 39.18526533 -12.375 35.5625 C-12.12991699 34.88251953 -11.88483398 34.20253906 -11.63232422 33.50195312 C-10.73960417 31.0064564 -9.86899867 28.50385727 -9 26 C-8.61908203 24.90929199 -8.23816406 23.81858398 -7.84570312 22.69482422 C-5.20819223 15.13750132 -2.5950721 7.57199393 0 0 Z " fill="#A897CE" transform="translate(194,401)"/>
<path d="M0 0 C-0.33 3.96 -0.66 7.92 -1 12 C-1.99 12 -2.98 12 -4 12 C-4.12375 10.865625 -4.2475 9.73125 -4.375 8.5625 C-4.58125 7.386875 -4.7875 6.21125 -5 5 C-5.66 4.67 -6.32 4.34 -7 4 C-7.33 7.3 -7.66 10.6 -8 14 C-7.01 14 -6.02 14 -5 14 C-5 14.99 -5 15.98 -5 17 C-6.8125 17.625 -6.8125 17.625 -9 18 C-9.99 17.34 -10.98 16.68 -12 16 C-12.36328125 13.3203125 -12.36328125 13.3203125 -12.3125 10.125 C-12.30863281 9.07570313 -12.30476562 8.02640625 -12.30078125 6.9453125 C-12.00771781 4.07557445 -11.57391185 2.39145617 -10 0 C-6.7169902 -1.6415049 -3.57454967 -0.51888624 0 0 Z " fill="#7D59C8" transform="translate(256,463)"/>
<path d="M0 0 C1.32 0 2.64 0 4 0 C4 0.99 4 1.98 4 3 C4.99 3 5.98 3 7 3 C7 4.32 7 5.64 7 7 C5.68 7 4.36 7 3 7 C3 10.3 3 13.6 3 17 C3.99 17 4.98 17 6 17 C5.67 18.65 5.34 20.3 5 22 C-0.875 21.125 -0.875 21.125 -2 20 C-2.09886353 18.37747508 -2.12971167 16.75052727 -2.125 15.125 C-2.12757813 14.24070312 -2.13015625 13.35640625 -2.1328125 12.4453125 C-2 10 -2 10 -1 7 C-1.66 7 -2.32 7 -3 7 C-2.38722388 4.03824877 -1.74627478 2.61941217 0 0 Z " fill="#9273D1" transform="translate(228,459)"/>
<path d="M0 0 C1.32 0 2.64 0 4 0 C4 0.99 4 1.98 4 3 C4.99 3 5.98 3 7 3 C7 4.32 7 5.64 7 7 C5.68 7 4.36 7 3 7 C3 10.3 3 13.6 3 17 C3.99 17 4.98 17 6 17 C5.67 18.65 5.34 20.3 5 22 C-0.875 21.125 -0.875 21.125 -2 20 C-2.09886353 18.37747508 -2.12971167 16.75052727 -2.125 15.125 C-2.12757813 14.24070312 -2.13015625 13.35640625 -2.1328125 12.4453125 C-2 10 -2 10 -1 7 C-1.66 7 -2.32 7 -3 7 C-2.38722388 4.03824877 -1.74627478 2.61941217 0 0 Z " fill="#967BD2" transform="translate(188,459)"/>
<path d="M0 0 C0.66 0 1.32 0 2 0 C2 2 2 4 2 6 C2.99 6.33 3.98 6.66 5 7 C5 6.34 5 5.68 5 5 C5.99 5.33 6.98 5.66 8 6 C2.54219231 12.11936014 -2.85484222 14.31712201 -10.82421875 14.94921875 C-17.89289344 15.06224799 -24.95252319 14.49900435 -32 14 C-32 13.34 -32 12.68 -32 12 C-30.68 11.34 -29.36 10.68 -28 10 C-28 10.99 -28 11.98 -28 13 C-24.95644992 12.74385965 -21.91605725 12.47064829 -18.875 12.1875 C-18.0190625 12.11724609 -17.163125 12.04699219 -16.28125 11.97460938 C-11.29352827 11.49502075 -7.25474371 10.87195201 -3 8 C-1.67698578 6.02081612 -1.67698578 6.02081612 -1.125 3.8125 C-0.75375 2.554375 -0.3825 1.29625 0 0 Z " fill="#8260CB" transform="translate(307,432)"/>
<path d="M0 0 C3.63 0 7.26 0 11 0 C11 0.66 11 1.32 11 2 C10.01 2 9.02 2 8 2 C7.67 18.17 7.34 34.34 7 51 C5.35 51 3.7 51 2 51 C3.98 50.505 3.98 50.505 6 50 C5.73898318 43.78840765 5.47233617 37.57709244 5.20043945 31.3659668 C5.10871582 29.25242691 5.01853848 27.13881933 4.92993164 25.02514648 C4.80239606 21.98922969 4.66932453 18.95359875 4.53515625 15.91796875 C4.47727684 14.4975251 4.47727684 14.4975251 4.41822815 13.04838562 C4.37826218 12.16769913 4.3382962 11.28701263 4.29711914 10.37963867 C4.26380997 9.60464523 4.23050079 8.82965179 4.19618225 8.03117371 C4.05688111 5.79804629 4.05688111 5.79804629 3 3 C2.01 2.67 1.02 2.34 0 2 C0 1.34 0 0.68 0 0 Z " fill="#7862A9" transform="translate(260,396)"/>
<path d="M0 0 C9.24 0 18.48 0 28 0 C28 0.99 28 1.98 28 3 C24.04 2.67 20.08 2.34 16 2 C16 17.18 16 32.36 16 48 C15.67 48 15.34 48 15 48 C15 32.49 15 16.98 15 1 C11.37 1.33 7.74 1.66 4 2 C3.67 2.66 3.34 3.32 3 4 C2.01 3.34 1.02 2.68 0 2 C0 1.34 0 0.68 0 0 Z " fill="#A289D6" transform="translate(275,396)"/>
<path d="M0 0 C2.64 0 5.28 0 8 0 C6.02 0.99 6.02 0.99 4 2 C3.67 16.19 3.34 30.38 3 45 C2.01 45.495 2.01 45.495 1 46 C0.67 30.82 0.34 15.64 0 0 Z " fill="#704DBA" transform="translate(278,397)"/>
<path d="M0 0 C2.41983869 3.62975804 3.53455417 7.28626842 4.90234375 11.40625 C5.9436593 14.31927335 5.9436593 14.31927335 9 17 C2.4 17 -4.2 17 -11 17 C-10.67 16.34 -10.34 15.68 -10 15 C-9.34 15 -8.68 15 -8 15 C-8.66 11.7 -9.32 8.4 -10 5 C-9.01 5 -8.02 5 -7 5 C-6.8046875 7.05078125 -6.609375 9.1015625 -6.4140625 11.15234375 C-6.27742188 11.76207031 -6.14078125 12.37179687 -6 13 C-5.34 13.33 -4.68 13.66 -4 14 C-4.33 14.33 -4.66 14.66 -5 15 C-2.69 15.33 -0.38 15.66 2 16 C1.86722656 15.40832031 1.73445313 14.81664062 1.59765625 14.20703125 C1.23432442 12.5813202 0.87374061 10.95499305 0.515625 9.328125 C0.12630359 7.57027986 -0.27720728 5.81556891 -0.6875 4.0625 C-1 2 -1 2 0 0 Z " fill="#7755BD" transform="translate(362,429)"/>
<path d="M0 0 C0.99 0.33 1.98 0.66 3 1 C3.13277344 1.68707031 3.26554687 2.37414062 3.40234375 3.08203125 C3.57894531 3.98308594 3.75554687 4.88414062 3.9375 5.8125 C4.19853516 7.15248047 4.19853516 7.15248047 4.46484375 8.51953125 C4.97741153 11.11397171 4.97741153 11.11397171 6 14 C6.99 14 7.98 14 9 14 C8.67 14.99 8.34 15.98 8 17 C6.02 17.33 4.04 17.66 2 18 C-0.53835868 15.41596392 -0.99485632 14.23931642 -1.07421875 10.546875 C-0.94660156 9.29390625 -0.81898438 8.0409375 -0.6875 6.75 C-0.56761719 5.48671875 -0.44773437 4.2234375 -0.32421875 2.921875 C-0.21722656 1.95765625 -0.11023438 0.9934375 0 0 Z " fill="#9170D1" transform="translate(281,463)"/>
<path d="M0 0 C0.33 0 0.66 0 1 0 C1 4.29 1 8.58 1 13 C-7.91 12.67 -16.82 12.34 -26 12 C-25.67 11.34 -25.34 10.68 -25 10 C-23.17275391 10.17402344 -23.17275391 10.17402344 -21.30859375 10.3515625 C-12.21563315 11.28822668 -12.21563315 11.28822668 -4.28125 7.7734375 C-2.60059945 5.24534028 -1.25598198 2.75823493 0 0 Z " fill="#8664CE" transform="translate(173,433)"/>
<path d="M0 0 C2.76371372 10.21817076 -3.66596803 22.37534167 -7 32 C-7.99 32 -8.98 32 -10 32 C-8.5591436 24.72746691 -6.36620826 17.9137634 -3.875 10.9375 C-3.50246094 9.88111328 -3.12992187 8.82472656 -2.74609375 7.73632812 C-1.83534623 5.15587683 -0.91990295 2.57719856 0 0 Z " fill="#AD9DD1" transform="translate(343,396)"/>
<path d="M0 0 C1.65 0 3.3 0 5 0 C4.67 4.29 4.34 8.58 4 13 C4.66 13 5.32 13 6 13 C6 14.32 6 15.64 6 17 C0.25 16.25 0.25 16.25 -2 14 C-1.34 14 -0.68 14 0 14 C0 9.38 0 4.76 0 0 Z " fill="#8A68D0" transform="translate(314,457)"/>
<path d="M0 0 C1.3342296 4.00268881 0.26269878 5.67208215 -1.25 9.5625 C-1.68828125 10.71878906 -2.1265625 11.87507812 -2.578125 13.06640625 C-4 16 -4 16 -7 18 C-7.33 18.99 -7.66 19.98 -8 21 C-9.32 20.67 -10.64 20.34 -12 20 C-10.37885498 15.20178341 -7.70723241 11.3327141 -4.875 7.1875 C-4.40707031 6.49462891 -3.93914062 5.80175781 -3.45703125 5.08789062 C-2.30887563 3.38908895 -1.15500633 1.69415136 0 0 Z " fill="#8662CE" transform="translate(160,189)"/>
<path d="M0 0 C0.66 0.99 1.32 1.98 2 3 C1.34 3 0.68 3 0 3 C0 4.65 0 6.3 0 8 C-0.62777344 8.23589844 -1.25554687 8.47179688 -1.90234375 8.71484375 C-4.60467485 10.37046187 -4.79192356 11.54319733 -5.5625 14.5625 C-6.19140625 17.00390625 -6.19140625 17.00390625 -7 19 C-7.99 19.33 -8.98 19.66 -10 20 C-9.79375 20.61875 -9.5875 21.2375 -9.375 21.875 C-9.25125 22.57625 -9.1275 23.2775 -9 24 C-9.66 24.66 -10.32 25.32 -11 26 C-12.32 26 -13.64 26 -15 26 C-13.65152264 22.36707683 -12.01515006 19.20068097 -9.9609375 15.91796875 C-9.38085938 14.98662109 -8.80078125 14.05527344 -8.203125 13.09570312 C-7.59984375 12.13599609 -6.9965625 11.17628906 -6.375 10.1875 C-5.45847656 8.71893555 -5.45847656 8.71893555 -4.5234375 7.22070312 C-3.01918285 4.81154528 -1.5112726 2.40475932 0 0 Z " fill="#8A67CE" transform="translate(273,13)"/>
<path d="M0 0 C0.33 0 0.66 0 1 0 C1 12.21 1 24.42 1 37 C2.65 37.66 4.3 38.32 6 39 C6.33 39.66 6.66 40.32 7 41 C2.71 41 -1.58 41 -6 41 C-5.67 40.34 -5.34 39.68 -5 39 C-2.525 38.505 -2.525 38.505 0 38 C0 25.46 0 12.92 0 0 Z " fill="#6645A9" transform="translate(232,405)"/>
<path d="M0 0 C3.48763093 1.74381547 6.03368051 3.52806709 9 6 C8.34 7.65 7.68 9.3 7 11 C6.67 11 6.34 11 6 11 C6 9.02 6 7.04 6 5 C4.02 5.33 2.04 5.66 0 6 C0 7.32 0 8.64 0 10 C-1.8125 11.8125 -1.8125 11.8125 -4 13 C-4.99 12.67 -5.98 12.34 -7 12 C-4.69 8.04 -2.38 4.08 0 0 Z " fill="#8561CD" transform="translate(281,0)"/>
<path d="M0 0 C4 2 4 2 5.25 4.625 C5.4975 5.40875 5.745 6.1925 6 7 C4.35 6.67 2.7 6.34 1 6 C0.71125 6.78375 0.4225 7.5675 0.125 8.375 C-1 11 -1 11 -3 13 C-4.98 9.535 -4.98 9.535 -7 6 C-4.69 4.02 -2.38 2.04 0 0 Z " fill="#7C54CD" transform="translate(219,0)"/>
<path d="M0 0 C0.99 0 1.98 0 3 0 C3 1.98 3 3.96 3 6 C4.32 5.67 5.64 5.34 7 5 C7.33 6.65 7.66 8.3 8 10 C4.7 10.33 1.4 10.66 -2 11 C-2.28571429 3.57142857 -2.28571429 3.57142857 0 0 Z " fill="#7F59CB" transform="translate(269,470)"/>
<path d="M0 0 C0.99 0 1.98 0 3 0 C4.59162079 5.57067277 5.20674944 10.21101581 5 16 C3.20766175 12.67137181 2.23616815 9.70850445 1 6 C-4.61 5.67 -10.22 5.34 -16 5 C-16 4.34 -16 3.68 -16 3 C-10.72 3 -5.44 3 0 3 C0 2.01 0 1.02 0 0 Z " fill="#8A73C9" transform="translate(202,425)"/>
<path d="M0 0 C4.89211153 0.11724015 8.10475657 0.33751986 12.125 3.3125 C14 6 14 6 13.8125 8.3125 C13.544375 8.869375 13.27625 9.42625 13 10 C12.01 10 11.02 10 10 10 C9.67 9.34 9.34 8.68 9 8 C8.01 9.485 8.01 9.485 7 11 C7 9.68 7 8.36 7 7 C6.01 6.67 5.02 6.34 4 6 C4.33 5.01 4.66 4.02 5 3 C2.03 2.505 2.03 2.505 -1 2 C-0.67 1.34 -0.34 0.68 0 0 Z " fill="#9B7ED4" transform="translate(249,456)"/>
<path d="M0 0 C6.15234375 -0.09765625 6.15234375 -0.09765625 8 0 C9.89885096 1.89885096 9.12367506 4.57247903 9.1328125 7.08984375 C9 9 9 9 8 11 C7.01 11 6.02 11 5 11 C4.67 9.02 4.34 7.04 4 5 C2.68 4.67 1.36 4.34 0 4 C0 2.68 0 1.36 0 0 Z " fill="#8261C5" transform="translate(296,457)"/>
<path d="M0 0 C1.125 3.75 1.125 3.75 0 6 C-0.66 6 -1.32 6 -2 6 C-1.731875 7.216875 -1.46375 8.43375 -1.1875 9.6875 C-0.71784857 13.36643618 -0.81975108 13.75795145 -3.1875 16.9375 C-5.64337099 18.73847206 -7.02678208 19.66964245 -10 20 C-8.56347895 15.08558588 -6.45840385 10.99761642 -3.875 6.625 C-3.50246094 5.98433594 -3.12992188 5.34367187 -2.74609375 4.68359375 C-1.83565998 3.11951523 -0.91851809 1.55934466 0 0 Z " fill="#8159CF" transform="translate(155,406)"/>
<path d="M0 0 C0.99 0 1.98 0 3 0 C2.90263078 2.92107655 2.81976301 5.23396093 2 8 C-1.20279912 10.77575924 -3.92492231 12.08951626 -8 13 C-7.04600922 11.20601733 -6.08665974 9.41488345 -5.125 7.625 C-4.59132812 6.62726563 -4.05765625 5.62953125 -3.5078125 4.6015625 C-2 2 -2 2 0 0 Z " fill="#7A53CC" transform="translate(186,149)"/>
<path d="M0 0 C2.64751415 2.64751415 2.71520084 4.29761096 3 8 C2.0625 11.375 2.0625 11.375 1 14 C-0.32 13.67 -1.64 13.34 -3 13 C-3 12.34 -3 11.68 -3 11 C-3.66 11 -4.32 11 -5 11 C-3.77472971 6.94718288 -2.30119506 3.55639236 0 0 Z " fill="#7D53D0" transform="translate(144,426)"/>
<path d="M0 0 C0.33 1.98 0.66 3.96 1 6 C0.01 6 -0.98 6 -2 6 C-2 7.65 -2 9.3 -2 11 C-2.66 11 -3.32 11 -4 11 C-4 10.34 -4 9.68 -4 9 C-4.99 9.33 -5.98 9.66 -7 10 C-7 9.34 -7 8.68 -7 8 C-7.66 7.67 -8.32 7.34 -9 7 C-8.67 5.68 -8.34 4.36 -8 3 C-7.34 3 -6.68 3 -6 3 C-5.67 2.34 -5.34 1.68 -5 1 C-3.3176559 0.47426747 -1.77322566 0 0 0 Z " fill="#6B3ACE" transform="translate(161,409)"/>
<path d="M0 0 C0.33 1.32 0.66 2.64 1 4 C0.34 4 -0.32 4 -1 4 C-1.33 5.65 -1.66 7.3 -2 9 C-2.66 9 -3.32 9 -4 9 C-3.67 9.99 -3.34 10.98 -3 12 C-3.99 13.485 -3.99 13.485 -5 15 C-5.99 15 -6.98 15 -8 15 C-8.33 16.65 -8.66 18.3 -9 20 C-9.66 20 -10.32 20 -11 20 C-11 20.99 -11 21.98 -11 23 C-11.99 23.33 -12.98 23.66 -14 24 C-12.70208638 20.51825247 -11.18014318 17.48384093 -9.1796875 14.35546875 C-8.64472656 13.51435547 -8.10976562 12.67324219 -7.55859375 11.80664062 C-6.72521484 10.51016602 -6.72521484 10.51016602 -5.875 9.1875 C-5.31167969 8.30384766 -4.74835938 7.42019531 -4.16796875 6.50976562 C-2.78236826 4.33742587 -1.39295366 2.16762917 0 0 Z " fill="#8F6ECD" transform="translate(136,226)"/>
<path d="M0 0 C1.28905763 3.94663534 0.48418997 6.27942148 -0.8203125 10.09765625 C-0.87960938 10.72542969 -0.93890625 11.35320312 -1 12 C-0.01 12.99 0.98 13.98 2 15 C-1.96 15 -5.92 15 -10 15 C-9 13 -9 13 -6 12 C-4.56697348 9.4830606 -4.56697348 9.4830606 -3.375 6.5 C-1.06278027 1.06278027 -1.06278027 1.06278027 0 0 Z " fill="#9B8AC8" transform="translate(185,431)"/>
<path d="M0 0 C0.66 1.32 1.32 2.64 2 4 C1.62488281 4.4846875 1.24976563 4.969375 0.86328125 5.46875 C-2.30605422 9.62002064 -5.16735517 13.78018545 -7.7265625 18.3359375 C-9.24949247 20.3260239 -10.71092016 21.04380209 -13 22 C-11.29816715 16.88424944 -8.32246469 12.64984185 -5.375 8.1875 C-4.859375 7.39923828 -4.34375 6.61097656 -3.8125 5.79882812 C-2.54558583 3.8632648 -1.27467036 1.93046058 0 0 Z " fill="#8F6FD0" transform="translate(177,162)"/>
<path d="M0 0 C0 4.62 0 9.24 0 14 C-1.32 14.33 -2.64 14.66 -4 15 C-5.10176129 11.64783266 -4.89303058 9.24878922 -4.1875 5.8125 C-4.01605469 4.93207031 -3.84460938 4.05164063 -3.66796875 3.14453125 C-3.44753906 2.43683594 -3.22710937 1.72914063 -3 1 C-1 0 -1 0 0 0 Z " fill="#6C41BB" transform="translate(222,466)"/>
<path d="M0 0 C0.33 0.99 0.66 1.98 1 3 C4.06290797 2.69141842 7.12523952 2.37743707 10.1875 2.0625 C11.48397461 1.93198242 11.48397461 1.93198242 12.80664062 1.79882812 C16.9203025 1.3732769 20.96211191 0.92796186 25 0 C25 1.33333333 25 2.66666667 25 4 C15.5820037 5.36712849 6.4474418 4.66893651 -3 4 C-3 3.34 -3 2.68 -3 2 C-2.01 1.34 -1.02 0.68 0 0 Z " fill="#886FC1" transform="translate(278,442)"/>
<path d="M0 0 C2.625 1.4375 2.625 1.4375 5 3 C4.67 3.66 4.34 4.32 4 5 C3.67 5 3.34 5 3 5 C2.9175 5.78375 2.835 6.5675 2.75 7.375 C2 10 2 10 -0.0625 11.3125 C-0.701875 11.539375 -1.34125 11.76625 -2 12 C-4.20183486 5.63914373 -4.20183486 5.63914373 -3.25 2.625 C-2 1 -2 1 0 0 Z " fill="#7141CF" transform="translate(236,27)"/>
<path d="M0 0 C0.66 0 1.32 0 2 0 C2 4.95 2 9.9 2 15 C0.68 15 -0.64 15 -2 15 C-2.05429959 13.25034642 -2.09292823 11.50020213 -2.125 9.75 C-2.15980469 8.28820312 -2.15980469 8.28820312 -2.1953125 6.796875 C-1.99862781 3.9803502 -1.44568916 2.39050964 0 0 Z " fill="#7D5AC5" transform="translate(289,462)"/>
<path d="M0 0 C10 11.92307692 10 11.92307692 10 16 C9.01 16 8.02 16 7 16 C5.97388051 14.34928604 4.97691857 12.68029994 4 11 C3.29875 10.484375 2.5975 9.96875 1.875 9.4375 C0 8 0 8 -0.8125 6.0625 C-1.01851726 3.79631016 -0.69292748 2.15577438 0 0 Z " fill="#8159CE" transform="translate(292,109)"/>
<path d="M0 0 C-0.33 3.96 -0.66 7.92 -1 12 C-1.99 12 -2.98 12 -4 12 C-4 9.03 -4 6.06 -4 3 C-5.65 3 -7.3 3 -9 3 C-5.59353476 -0.0279691 -4.9819505 0 0 0 Z " fill="#6D45C2" transform="translate(256,463)"/>
<path d="M0 0 C1.45792884 -0.05399736 2.91642712 -0.09279177 4.375 -0.125 C5.18710938 -0.14820313 5.99921875 -0.17140625 6.8359375 -0.1953125 C9 0 9 0 11 2 C11.1953125 4.1640625 11.1953125 4.1640625 11.125 6.625 C11.10695312 7.44226563 11.08890625 8.25953125 11.0703125 9.1015625 C11.03550781 10.04128906 11.03550781 10.04128906 11 11 C10.67 11 10.34 11 10 11 C9.938125 10.21625 9.87625 9.4325 9.8125 8.625 C9.544375 7.75875 9.27625 6.8925 9 6 C6.52363988 4.62533375 6.52363988 4.62533375 4 4 C3.67 4.99 3.34 5.98 3 7 C3 6.01 3 5.02 3 4 C2.34 4 1.68 4 1 4 C0.67 2.68 0.34 1.36 0 0 Z " fill="#9478CE" transform="translate(212,462)"/>
<path d="M0 0 C0.66 0 1.32 0 2 0 C2 1.98 2 3.96 2 6 C2.99 6 3.98 6 5 6 C4.67 7.65 4.34 9.3 4 11 C1.03 10.505 1.03 10.505 -2 10 C-3.125 3.25 -3.125 3.25 -2 1 C-1.34 1.33 -0.68 1.66 0 2 C0 1.34 0 0.68 0 0 Z " fill="#6B39CD" transform="translate(226,14)"/>
<path d="M0 0 C2.475 0.99 2.475 0.99 5 2 C4.67 3.98 4.34 5.96 4 8 C1.625 8.625 1.625 8.625 -1 9 C-1.66 8.34 -2.32 7.68 -3 7 C-2.61121812 3.98694043 -1.73543126 2.60314689 0 0 Z " fill="#683BC8" transform="translate(220,5)"/>
<path d="M0 0 C0.33 0 0.66 0 1 0 C1 5.28 1 10.56 1 16 C-4 16 -4 16 -5.875 14.25 C-7 12 -7 12 -6.6875 9.75 C-6.460625 9.1725 -6.23375 8.595 -6 8 C-5.34 8.66 -4.68 9.32 -4 10 C-3.01 10 -2.02 10 -1 10 C-0.67 6.7 -0.34 3.4 0 0 Z " fill="#6942BF" transform="translate(265,430)"/>
<path d="M0 0 C2.125 0.375 2.125 0.375 4 1 C4 1.99 4 2.98 4 4 C4.66 4 5.32 4 6 4 C5.67 5.32 5.34 6.64 5 8 C3.824375 7.9690625 3.824375 7.9690625 2.625 7.9375 C0.01885039 7.81315937 0.01885039 7.81315937 -2 9 C-2.125 5.625 -2.125 5.625 -2 2 C-1.34 1.34 -0.68 0.68 0 0 Z " fill="#6C39D0" transform="translate(239,400)"/>
<path d="M0 0 C0.66 1.32 1.32 2.64 2 4 C1.01 4 0.02 4 -1 4 C-1.0825 4.66 -1.165 5.32 -1.25 6 C-2.24956279 9.99825118 -3.66661989 13.58436135 -6 17 C-8.75 18.5 -8.75 18.5 -11 19 C-9.41467191 14.44435939 -7.00996919 10.68524231 -4.375 6.6875 C-3.95476562 6.04232422 -3.53453125 5.39714844 -3.1015625 4.73242188 C-2.07161759 3.15239276 -1.03634372 1.57583953 0 0 Z " fill="#8E6ECD" transform="translate(218,98)"/>
<path d="M0 0 C1.32 1.32 2.64 2.64 4 4 C3.67 4.99 3.34 5.98 3 7 C2.73038495 10.32097273 2.55500564 13.64159564 2.37890625 16.96875 C2 20 2 20 0 23 C0 15.41 0 7.82 0 0 Z " fill="#693EBF" transform="translate(309,408)"/>
<path d="M0 0 C1.2065625 0.0309375 1.2065625 0.0309375 2.4375 0.0625 C2.4375 1.3825 2.4375 2.7025 2.4375 4.0625 C3.0975 4.0625 3.7575 4.0625 4.4375 4.0625 C4.1875 5.9375 4.1875 5.9375 3.4375 8.0625 C1.375 9.3125 1.375 9.3125 -0.5625 10.0625 C-0.748125 9.2271875 -0.748125 9.2271875 -0.9375 8.375 C-1.62226855 5.84135636 -2.55383763 3.48328968 -3.5625 1.0625 C-2.5625 0.0625 -2.5625 0.0625 0 0 Z " fill="#6D39D2" transform="translate(312.5625,404.9375)"/>
<path d="M0 0 C2.475 0.99 2.475 0.99 5 2 C5 5.3 5 8.6 5 12 C3.68 12 2.36 12 1 12 C0.4375 10.0625 0.4375 10.0625 0 8 C0.33 7.67 0.66 7.34 1 7 C0.71269945 4.66055264 0.38063221 2.3260857 0 0 Z " fill="#693AC9" transform="translate(145,426)"/>
<path d="M0 0 C1.90747183 2.86120775 3.00353706 5.35254993 4.1875 8.5625 C4.55230469 9.53316406 4.91710937 10.50382812 5.29296875 11.50390625 C6 14 6 14 5 16 C4.67 14.68 4.34 13.36 4 12 C2.02 12.99 0.04 13.98 -2 15 C-1.125 9.125 -1.125 9.125 0 8 C0.07148199 6.64756083 0.08399454 5.29165633 0.0625 3.9375 C0.041875 2.638125 0.02125 1.33875 0 0 Z " fill="#855DD5" transform="translate(352,400)"/>
<path d="M0 0 C0.33 0 0.66 0 1 0 C1.33 1.98 1.66 3.96 2 6 C2.66 5.67 3.32 5.34 4 5 C4.66 5.66 5.32 6.32 6 7 C6.66 7 7.32 7 8 7 C7.67 8.65 7.34 10.3 7 12 C1.125 11.125 1.125 11.125 0 10 C-0.07205511 8.31391034 -0.08386068 6.62499341 -0.0625 4.9375 C-0.05347656 4.01839844 -0.04445312 3.09929687 -0.03515625 2.15234375 C-0.02355469 1.44207031 -0.01195312 0.73179687 0 0 Z " fill="#9975D7" transform="translate(186,469)"/>
<path d="M0 0 C0.33 1.32 0.66 2.64 1 4 C1.66 4 2.32 4 3 4 C1.7508258 7.45925163 0.32472205 10.14693203 -2 13 C-2 12.34 -2 11.68 -2 11 C-2.99 11 -3.98 11 -5 11 C-3.77472971 6.94718288 -2.30119506 3.55639236 0 0 Z " fill="#8661CC" transform="translate(300,464)"/>
<path d="M0 0 C5.99295775 5.83098592 5.99295775 5.83098592 8 9 C8 9.99 8 10.98 8 12 C6.68 12 5.36 12 4 12 C4 11.01 4 10.02 4 9 C2.68 8.34 1.36 7.68 0 7 C0 4.69 0 2.38 0 0 Z " fill="#865FD0" transform="translate(256,418)"/>
<path d="M0 0 C0.33 0 0.66 0 1 0 C1.33 1.98 1.66 3.96 2 6 C2.66 5.67 3.32 5.34 4 5 C4.66 5.66 5.32 6.32 6 7 C6.66 7 7.32 7 8 7 C7.67 8.65 7.34 10.3 7 12 C1.125 11.125 1.125 11.125 0 10 C-0.07205511 8.31391034 -0.08386068 6.62499341 -0.0625 4.9375 C-0.05347656 4.01839844 -0.04445312 3.09929687 -0.03515625 2.15234375 C-0.02355469 1.44207031 -0.01195312 0.73179687 0 0 Z " fill="#9A7AD3" transform="translate(226,469)"/>
<path d="M0 0 C2.475 0.99 2.475 0.99 5 2 C5 3.65 5 5.3 5 7 C3.02 7.66 1.04 8.32 -1 9 C-1 8.34 -1 7.68 -1 7 C-1.66 6.67 -2.32 6.34 -3 6 C-2.01 4.02 -1.02 2.04 0 0 Z " fill="#6B3ACC" transform="translate(255,425)"/>
<path d="M0 0 C2.475 0.99 2.475 0.99 5 2 C4.34 2.66 3.68 3.32 3 4 C2.67 3.67 2.34 3.34 2 3 C1.67 13.56 1.34 24.12 1 35 C0.67 35 0.34 35 0 35 C0 23.45 0 11.9 0 0 Z " fill="#8E6CCF" transform="translate(233,407)"/>
<path d="M0 0 C3.375 -0.125 3.375 -0.125 7 0 C9 2 9 2 9.125 5.125 C9.08375 6.07375 9.0425 7.0225 9 8 C8.67 8 8.34 8 8 8 C8 6.35 8 4.7 8 3 C7.34 3 6.68 3 6 3 C5.67 4.65 5.34 6.3 5 8 C4.67 6.68 4.34 5.36 4 4 C2.35 4 0.7 4 -1 4 C-0.67 2.68 -0.34 1.36 0 0 Z " fill="#997CD7" transform="translate(269,457)"/>
<path d="M0 0 C0.33 0 0.66 0 1 0 C1.19551338 1.60320974 1.38111983 3.20762986 1.5625 4.8125 C1.66691406 5.70582031 1.77132813 6.59914063 1.87890625 7.51953125 C2 10 2 10 1 13 C0.34 13 -0.32 13 -1 13 C-1 12.01 -1 11.02 -1 10 C-1.99 10.33 -2.98 10.66 -4 11 C-3.52269162 9.5410574 -3.04308958 8.08286504 -2.5625 6.625 C-2.29566406 5.81289063 -2.02882813 5.00078125 -1.75390625 4.1640625 C-1 2 -1 2 0 0 Z " fill="#9F80D8" transform="translate(313,458)"/>
<path d="M0 0 C0.33 1.32 0.66 2.64 1 4 C2.32 4 3.64 4 5 4 C4.67 5.32 4.34 6.64 4 8 C1.36 8.33 -1.28 8.66 -4 9 C-2.94124926 5.59687262 -1.99097846 2.98646769 0 0 Z " fill="#6B3ACF" transform="translate(138,437)"/>
<path d="M0 0 C1.65 0 3.3 0 5 0 C5.3636198 4.24223102 4.5393228 6.58168085 2 10 C1.34 10 0.68 10 0 10 C0 6.7 0 3.4 0 0 Z " fill="#7952C6" transform="translate(136,397)"/>
<path d="M0 0 C0.66 0.33 1.32 0.66 2 1 C2 3.97 2 6.94 2 10 C1.01 10.33 0.02 10.66 -1 11 C-1 10.01 -1 9.02 -1 8 C-1.66 8 -2.32 8 -3 8 C-3 6.02 -3 4.04 -3 2 C-2.34 2 -1.68 2 -1 2 C-0.67 1.34 -0.34 0.68 0 0 Z " fill="#6B39D2" transform="translate(205,408)"/>
<path d="M0 0 C0.33 0 0.66 0 1 0 C1 1.65 1 3.3 1 5 C0.34 5 -0.32 5 -1 5 C-1.226875 6.11375 -1.45375 7.2275 -1.6875 8.375 C-3 12 -3 12 -5.625 13.4375 C-6.40875 13.623125 -7.1925 13.80875 -8 14 C-6.67726488 10.40241608 -5.0805802 7.36262865 -2.9375 4.1875 C-2.14666016 3.00220703 -2.14666016 3.00220703 -1.33984375 1.79296875 C-0.89769531 1.20128906 -0.45554687 0.60960937 0 0 Z " fill="#8A68CC" transform="translate(117,256)"/>
<path d="M0 0 C3.91431665 1.30477222 4.57812588 2.98673306 6.75 6.4375 C7.38421875 7.42621094 8.0184375 8.41492188 8.671875 9.43359375 C9.11015625 10.28050781 9.5484375 11.12742187 10 12 C9.67 12.66 9.34 13.32 9 14 C8.01 13.67 7.02 13.34 6 13 C6 11.68 6 10.36 6 9 C5.34 9 4.68 9 4 9 C3.71125 8.360625 3.4225 7.72125 3.125 7.0625 C2.17176549 4.84793921 2.17176549 4.84793921 0 4 C0 2.68 0 1.36 0 0 Z " fill="#8967CC" transform="translate(453,362)"/>
<path d="M0 0 C0.66 0 1.32 0 2 0 C1.85904936 1.6254308 1.71207913 3.25034051 1.5625 4.875 C1.48128906 5.77992188 1.40007812 6.68484375 1.31640625 7.6171875 C1 10 1 10 0 12 C-0.66 12 -1.32 12 -2 12 C-2.05395478 10.37536158 -2.09277195 8.75021459 -2.125 7.125 C-2.14820313 6.22007812 -2.17140625 5.31515625 -2.1953125 4.3828125 C-2 2 -2 2 0 0 Z " fill="#7C59C2" transform="translate(239,466)"/>
<path d="M0 0 C0.99 0 1.98 0 3 0 C1.58707905 4.8274799 -0.42974154 8.7162359 -3 13 C-3.33 13 -3.66 13 -4 13 C-4 11.02 -4 9.04 -4 7 C-3.34 7 -2.68 7 -2 7 C-2.04125 6.21625 -2.0825 5.4325 -2.125 4.625 C-2 2 -2 2 0 0 Z " fill="#906FCF" transform="translate(161,413)"/>
<path d="M0 0 C2.50719458 2.32649587 4.32183601 4.82681521 6.1875 7.6875 C6.71730469 8.49574219 7.24710937 9.30398438 7.79296875 10.13671875 C8.39044922 11.05904297 8.39044922 11.05904297 9 12 C8.67 12.66 8.34 13.32 8 14 C7.34 13.67 6.68 13.34 6 13 C6 12.34 6 11.68 6 11 C5.01 10.67 4.02 10.34 3 10 C2.67 8.35 2.34 6.7 2 5 C1.34 5 0.68 5 0 5 C0 3.35 0 1.7 0 0 Z " fill="#8D6BCF" transform="translate(413,298)"/>
<path d="M0 0 C0.66 0.99 1.32 1.98 2 3 C1.34 4.32 0.68 5.64 0 7 C-0.66 7 -1.32 7 -2 7 C-2.33 8.65 -2.66 10.3 -3 12 C-3.99 11.67 -4.98 11.34 -6 11 C-4.54955729 6.89041233 -2.48889248 3.56741255 0 0 Z " fill="#8665CF" transform="translate(45,368)"/>
<path d="M0 0 C0.66 0.33 1.32 0.66 2 1 C1.67 1.928125 1.34 2.85625 1 3.8125 C-0.14967004 6.92029291 -0.14967004 6.92029291 0 10 C-1.98 10.33 -3.96 10.66 -6 11 C-4.54955729 6.89041233 -2.48889248 3.56741255 0 0 Z " fill="#8B68CF" transform="translate(245,56)"/>
<path d="M0 0 C0.99 0 1.98 0 3 0 C3.36923077 7.50769231 3.36923077 7.50769231 1.5 10 C1.005 10.33 0.51 10.66 0 11 C-0.625 9.1875 -0.625 9.1875 -1 7 C-0.34 6.01 0.32 5.02 1 4 C0.01 4 -0.98 4 -2 4 C-1.34 2.68 -0.68 1.36 0 0 Z " fill="#764BCB" transform="translate(284,5)"/>
<path d="M0 0 C0 0.66 0 1.32 0 2 C-0.99 2 -1.98 2 -3 2 C-3.33 2.66 -3.66 3.32 -4 4 C-4.98020375 5.0194119 -5.97803008 6.02246356 -7 7 C-7 5.68 -7 4.36 -7 3 C-7.99 3.33 -8.98 3.66 -10 4 C-7.53453745 -1.4592385 -5.69047474 -1.11335375 0 0 Z " fill="#9F85D3" transform="translate(207,463)"/>
<path d="M0 0 C3.3 0 6.6 0 10 0 C9.67 0.99 9.34 1.98 9 3 C8.01 3.33 7.02 3.66 6 4 C6 3.01 6 2.02 6 1 C4.35 1 2.7 1 1 1 C1.33 4.96 1.66 8.92 2 13 C1.34 13 0.68 13 0 13 C0 8.71 0 4.42 0 0 Z " fill="#A58DD6" transform="translate(135,396)"/>
<path d="M0 0 C0.66 0.33 1.32 0.66 2 1 C2 3.64 2 6.28 2 9 C0.68 9.33 -0.64 9.66 -2 10 C-2 7.36 -2 4.72 -2 2 C-1.34 2 -0.68 2 0 2 C0 1.34 0 0.68 0 0 Z " fill="#8463CA" transform="translate(262,464)"/>
<path d="M0 0 C0.680625 0.556875 1.36125 1.11375 2.0625 1.6875 C2.0625 2.0175 2.0625 2.3475 2.0625 2.6875 C-2.2275 2.6875 -6.5175 2.6875 -10.9375 2.6875 C-9.9375 0.6875 -9.9375 0.6875 -6.6875 -0.625 C-2.9375 -1.3125 -2.9375 -1.3125 0 0 Z " fill="#8F79C7" transform="translate(236.9375,443.3125)"/>
<path d="M0 0 C0.66 0 1.32 0 2 0 C2 0.66 2 1.32 2 2 C3.32 2.66 4.64 3.32 6 4 C6 4.66 6 5.32 6 6 C6.66 6 7.32 6 8 6 C8.33 6.99 8.66 7.98 9 9 C9.66 9.33 10.32 9.66 11 10 C10.01 10.66 9.02 11.32 8 12 C6.66382103 10.18959679 5.33112616 8.3766216 4 6.5625 C3.2575 5.55316406 2.515 4.54382813 1.75 3.50390625 C0 1 0 1 0 0 Z " fill="#8F6FD2" transform="translate(239,414)"/>
<path d="M0 0 C0.66 0 1.32 0 2 0 C3.98 3.63 5.96 7.26 8 11 C7.34 11 6.68 11 6 11 C6 10.34 6 9.68 6 9 C5.38125 8.690625 4.7625 8.38125 4.125 8.0625 C2.75 7.375 1.375 6.6875 0 6 C0 4.02 0 2.04 0 0 Z " fill="#8866CF" transform="translate(354,207)"/>
<path d="M0 0 C2.25245881 2.68841859 3.88213958 4.64641875 5 8 C2.69 8 0.38 8 -2 8 C-2.33 7.01 -2.66 6.02 -3 5 C-2.01 4.67 -1.02 4.34 0 4 C0 2.68 0 1.36 0 0 Z " fill="#7D55CE" transform="translate(349,198)"/>
<path d="M0 0 C0.33 1.32 0.66 2.64 1 4 C0.34 4 -0.32 4 -1 4 C-1 5.32 -1 6.64 -1 8 C-1.66 8 -2.32 8 -3 8 C-2.67 8.99 -2.34 9.98 -2 11 C-3.32 11.33 -4.64 11.66 -6 12 C-6 12.66 -6 13.32 -6 14 C-6.66 13.67 -7.32 13.34 -8 13 C-5.36 8.71 -2.72 4.42 0 0 Z " fill="#9270D1" transform="translate(227,84)"/>
<path d="M0 0 C0.66 0.66 1.32 1.32 2 2 C1.77355827 6.981718 -0.01183479 10.07803317 -3 14 C-3.33 14 -3.66 14 -4 14 C-4 12.35 -4 10.7 -4 9 C-3.34 9 -2.68 9 -2 9 C-2 8.01 -2 7.02 -2 6 C-1.34 6 -0.68 6 0 6 C-0.2784375 4.7934375 -0.2784375 4.7934375 -0.5625 3.5625 C-0.706875 2.716875 -0.85125 1.87125 -1 1 C-0.67 0.67 -0.34 0.34 0 0 Z " fill="#8461CE" transform="translate(263,42)"/>
<path d="M0 0 C1.65 0.33 3.3 0.66 5 1 C5 3.31 5 5.62 5 8 C2.69 8 0.38 8 -2 8 C-1.01 7.67 -0.02 7.34 1 7 C1.33 5.02 1.66 3.04 2 1 C1.34 0.67 0.68 0.34 0 0 Z " fill="#6F48BE" transform="translate(202,464)"/>
<path d="M0 0 C0.99 0 1.98 0 3 0 C3.36923077 6.52307692 3.36923077 6.52307692 1.5 8.9375 C1.005 9.288125 0.51 9.63875 0 10 C-1.49106457 7.01787087 -1.11941467 4.28390342 -1 1 C-0.67 0.67 -0.34 0.34 0 0 Z " fill="#8665CA" transform="translate(281,469)"/>
<path d="M0 0 C2.9156164 3.54039134 5.50127818 7.1626772 8 11 C7.67 11.66 7.34 12.32 7 13 C6.01 12.67 5.02 12.34 4 12 C4 10.68 4 9.36 4 8 C3.01 7.67 2.02 7.34 1 7 C0.67 4.69 0.34 2.38 0 0 Z " fill="#8E6ECF" transform="translate(371,232)"/>
<path d="M0 0 C0.66 0.99 1.32 1.98 2 3 C2.33 3 2.66 3 3 3 C3 4.65 3 6.3 3 8 C1.02 8.99 1.02 8.99 -1 10 C-1 8.68 -1 7.36 -1 6 C-1.66 5.67 -2.32 5.34 -3 5 C-2.01 3.35 -1.02 1.7 0 0 Z " fill="#794FCE" transform="translate(231,78)"/>
<path d="M0 0 C0.66 0 1.32 0 2 0 C2.08090971 1.62418745 2.13914995 3.24951745 2.1875 4.875 C2.22230469 5.77992188 2.25710937 6.68484375 2.29296875 7.6171875 C2.19628906 8.40351563 2.09960938 9.18984375 2 10 C1.01 10.66 0.02 11.32 -1 12 C-1.14285714 3.42857143 -1.14285714 3.42857143 0 0 Z " fill="#6A3FBC" transform="translate(188,464)"/>
<path d="M0 0 C0.99 0 1.98 0 3 0 C4.59162079 5.57067277 5.20674944 10.21101581 5 16 C3.15209462 12.68983906 2.25458513 9.42826509 1.375 5.75 C0.98441406 4.13351562 0.98441406 4.13351562 0.5859375 2.484375 C0.39257812 1.66453125 0.19921875 0.8446875 0 0 Z " fill="#835FCB" transform="translate(202,425)"/>
<path d="M0 0 C3.63 0 7.26 0 11 0 C11 0.66 11 1.32 11 2 C10.01 2 9.02 2 8 2 C7.67 2.66 7.34 3.32 7 4 C7 3.34 7 2.68 7 2 C6.34 2 5.68 2 5 2 C4.67 3.32 4.34 4.64 4 6 C3.67 5.01 3.34 4.02 3 3 C2.01 2.67 1.02 2.34 0 2 C0 1.34 0 0.68 0 0 Z " fill="#9D87D2" transform="translate(260,396)"/>
<path d="M0 0 C0.33 0.99 0.66 1.98 1 3 C6.61 3 12.22 3 18 3 C18 3.33 18 3.66 18 4 C11.07 4 4.14 4 -3 4 C-2.67 3.01 -2.34 2.02 -2 1 C-1.34 0.67 -0.68 0.34 0 0 Z " fill="#6C4AB6" transform="translate(40,378)"/>
<path d="M0 0 C2.95749791 3.46741134 5.07848152 6.86873527 7 11 C5.125 10.6875 5.125 10.6875 3 10 C2.34 9.01 1.68 8.02 1 7 C1.33 6.01 1.66 5.02 2 4 C1.34 4 0.68 4 0 4 C0 2.68 0 1.36 0 0 Z " fill="#8C68D1" transform="translate(435,332)"/>
<path d="M0 0 C0.33 0 0.66 0 1 0 C1 4.29 1 8.58 1 13 C0.67 13 0.34 13 0 13 C-0.33 10.69 -0.66 8.38 -1 6 C-1.33 6.66 -1.66 7.32 -2 8 C-2.66 8 -3.32 8 -4 8 C-2.25 2.25 -2.25 2.25 0 0 Z " fill="#AF98DF" transform="translate(173,433)"/>
<path d="M0 0 C3.3 0 6.6 0 10 0 C9.75 3.375 9.75 3.375 9 7 C6.9375 8.4375 6.9375 8.4375 5 9 C5.309375 8.236875 5.61875 7.47375 5.9375 6.6875 C6.67893593 4.81210323 7.36228217 2.91315348 8 1 C5.36 1 2.72 1 0 1 C0 0.67 0 0.34 0 0 Z " fill="#9679D2" transform="translate(151,397)"/>
<path d="M0 0 C1 3 1 3 1 6 C0.34 6 -0.32 6 -1 6 C-1.33 6.99 -1.66 7.98 -2 9 C-4.0625 10.1875 -4.0625 10.1875 -6 11 C-4.54955729 6.89041233 -2.48889248 3.56741255 0 0 Z " fill="#8F6FCE" transform="translate(108,270)"/>
<path d="M0 0 C2.99324263 1.0975223 3.84610901 1.67682892 5.25 4.625 C5.4975 5.40875 5.745 6.1925 6 7 C1.125 5.125 1.125 5.125 0 4 C-1.32594105 3.63837971 -2.65938457 3.30271961 -4 3 C-2.68 2.01 -1.36 1.02 0 0 Z " fill="#9476D0" transform="translate(219,0)"/>
<path d="M0 0 C0 0.66 0 1.32 0 2 C-0.99 2.495 -0.99 2.495 -2 3 C-1.01 3.33 -0.02 3.66 1 4 C0.67 4.66 0.34 5.32 0 6 C-0.66 5.67 -1.32 5.34 -2 5 C-2.33 6.32 -2.66 7.64 -3 9 C-3.33 8.01 -3.66 7.02 -4 6 C-4.66 5.67 -5.32 5.34 -6 5 C-5.625 3.0625 -5.625 3.0625 -5 1 C-3 0 -3 0 0 0 Z " fill="#A286D6" transform="translate(251,462)"/>
<path d="M0 0 C1.98 0.99 3.96 1.98 6 3 C6 3.33 6 3.66 6 4 C2.04 4 -1.92 4 -6 4 C-5.67 3.34 -5.34 2.68 -5 2 C-3.35 2 -1.7 2 0 2 C0 1.34 0 0.68 0 0 Z " fill="#856CC3" transform="translate(181,442)"/>
<path d="M0 0 C3.3 0.33 6.6 0.66 10 1 C6.99382731 4.00617269 4.17618402 3.59585316 0 4 C-0.33 3.34 -0.66 2.68 -1 2 C-0.67 1.34 -0.34 0.68 0 0 Z " fill="#7755C5" transform="translate(246,457)"/>
<path d="M0 0 C1.90318884 2.85478326 2.4619099 4.41941308 3.125 7.6875 C3.29257812 8.49574219 3.46015625 9.30398438 3.6328125 10.13671875 C3.75398438 10.75160156 3.87515625 11.36648438 4 12 C3.01 12.495 3.01 12.495 2 13 C1.47044766 11.21089097 0.9516063 9.41860852 0.4375 7.625 C0.14746094 6.62726563 -0.14257812 5.62953125 -0.44140625 4.6015625 C-1 2 -1 2 0 0 Z " fill="#8E71CD" transform="translate(362,429)"/>
<path d="M0 0 C0.33 0.66 0.66 1.32 1 2 C0.36328125 3.875 0.36328125 3.875 -0.6875 6 C-1.18830078 7.051875 -1.18830078 7.051875 -1.69921875 8.125 C-3.21910635 10.31582897 -4.55687434 11.01246289 -7 12 C-5.44298069 7.32894208 -2.91552627 3.91294315 0 0 Z " fill="#9476D1" transform="translate(62,342)"/>
<path d="M0 0 C0.33 0.99 0.66 1.98 1 3 C0.67 3.66 0.34 4.32 0 5 C-0.66 5 -1.32 5 -2 5 C-2.33 6.65 -2.66 8.3 -3 10 C-3.66 10 -4.32 10 -5 10 C-5 10.66 -5 11.32 -5 12 C-5.66 11.67 -6.32 11.34 -7 11 C-4.69 7.37 -2.38 3.74 0 0 Z " fill="#9575D1" transform="translate(144,214)"/>
<path d="M0 0 C2.25245881 2.68841859 3.88213958 4.64641875 5 8 C3.35 8 1.7 8 0 8 C-0.79953138 4.71303767 -1.09658936 3.28976808 0 0 Z " fill="#815AD0" transform="translate(308,134)"/>
<path d="M0 0 C0.33 0 0.66 0 1 0 C1 1.65 1 3.3 1 5 C0.34 5 -0.32 5 -1 5 C-1.0825 5.61875 -1.165 6.2375 -1.25 6.875 C-2 9 -2 9 -4.0625 10.25 C-4.701875 10.4975 -5.34125 10.745 -6 11 C-4.55007731 6.89188572 -2.54592427 3.53144334 0 0 Z " fill="#8C6BD0" transform="translate(206,117)"/>
<path d="M0 0 C0.66 0.33 1.32 0.66 2 1 C0.6302836 4.99500618 -1.25722422 7.80009492 -4 11 C-4 9.02 -4 7.04 -4 5 C-3.01 5 -2.02 5 -1 5 C-1.33 4.01 -1.66 3.02 -2 2 C-1.34 1.34 -0.68 0.68 0 0 Z " fill="#8D6CCA" transform="translate(275,26)"/>
<path d="M0 0 C0.33 0 0.66 0 1 0 C1.33 2.64 1.66 5.28 2 8 C2.66 7.67 3.32 7.34 4 7 C4 8.32 4 9.64 4 11 C2.68 11.33 1.36 11.66 0 12 C-1.53166168 7.91556885 -0.63081652 4.20544343 0 0 Z " fill="#AD92DC" transform="translate(218,469)"/>
<path d="M0 0 C0.33 0 0.66 0 1 0 C1.2519555 3.02346601 1.20421041 4.6402007 -0.3125 7.3125 C-0.869375 7.869375 -1.42625 8.42625 -2 9 C-2.99 9 -3.98 9 -5 9 C-3.75471468 5.55151758 -2.38532951 2.80016942 0 0 Z " fill="#8968CE" transform="translate(87,303)"/>
<path d="M0 0 C0.66 0 1.32 0 2 0 C3.32421875 1.6796875 3.32421875 1.6796875 4.6875 3.875 C5.14511719 4.59429687 5.60273438 5.31359375 6.07421875 6.0546875 C6.37972656 6.69664062 6.68523437 7.33859375 7 8 C6.67 8.66 6.34 9.32 6 10 C3.66475218 7.74259377 1.81294927 5.7194239 0 3 C0 2.01 0 1.02 0 0 Z " fill="#8E6BCC" transform="translate(329,168)"/>
<path d="M0 0 C0.66 1.32 1.32 2.64 2 4 C0.35 5.98 -1.3 7.96 -3 10 C-3.75 8.375 -3.75 8.375 -4 6 C-2.0625 2.75 -2.0625 2.75 0 0 Z " fill="#8867CC" transform="translate(177,162)"/>
<path d="M0 0 C1.8125 0.1875 1.8125 0.1875 4 1 C7 5.17857143 7 5.17857143 7 8 C6.01 8 5.02 8 4 8 C2.15473038 5.37403939 1.01624151 3.04872454 0 0 Z " fill="#8965CE" transform="translate(295,117)"/>
<path d="M0 0 C0.33 0 0.66 0 1 0 C1.66 3.3 2.32 6.6 3 10 C1.02 10.99 1.02 10.99 -1 12 C-2.45606519 7.47907032 -1.27032841 4.48351204 0 0 Z " fill="#9272D2" transform="translate(240,470)"/>
<path d="M0 0 C0.33 0 0.66 0 1 0 C0.67 2.97 0.34 5.94 0 9 C0.66 9.33 1.32 9.66 2 10 C0.68 10.33 -0.64 10.66 -2 11 C-2.28571429 3.57142857 -2.28571429 3.57142857 0 0 Z " fill="#9275C9" transform="translate(269,470)"/>
<path d="M0 0 C0.33 0 0.66 0 1 0 C1.37211538 7.56634615 1.37211538 7.56634615 -0.51171875 9.76171875 C-1.00285156 10.17035156 -1.49398437 10.57898438 -2 11 C-2.05399736 9.54207116 -2.09279177 8.08357288 -2.125 6.625 C-2.15980469 5.40683594 -2.15980469 5.40683594 -2.1953125 4.1640625 C-2 2 -2 2 0 0 Z " fill="#6740B9" transform="translate(229,466)"/>
<path d="M0 0 C0 0.99 0 1.98 0 3 C-4.16138263 3.08159574 -7.9472484 2.98248524 -12 2 C-12 1.67 -12 1.34 -12 1 C-10.37681021 0.63762737 -8.7513642 0.28534843 -7.125 -0.0625 C-6.22007812 -0.25972656 -5.31515625 -0.45695312 -4.3828125 -0.66015625 C-2 -1 -2 -1 0 0 Z " fill="#A689D7" transform="translate(303,443)"/>
<path d="M0 0 C0.66 0.33 1.32 0.66 2 1 C2 2.98 2 4.96 2 7 C0.35 7 -1.3 7 -3 7 C-3 6.34 -3 5.68 -3 5 C-2.34 5 -1.68 5 -1 5 C-0.67 3.35 -0.34 1.7 0 0 Z M-5 7 C-4.34 7.33 -3.68 7.66 -3 8 C-3.99 8 -4.98 8 -6 8 C-5.67 7.67 -5.34 7.34 -5 7 Z " fill="#6A3ACD" transform="translate(254,417)"/>
<path d="M0 0 C1.13732426 3.40401948 0.83989957 5.77456664 0.0625 9.25 C-0.13214844 10.14203125 -0.32679688 11.0340625 -0.52734375 11.953125 C-0.68332031 12.62859375 -0.83929688 13.3040625 -1 14 C-1.66 13.34 -2.32 12.68 -3 12 C-2.79296875 9.94140625 -2.79296875 9.94140625 -2.1875 7.5625 C-1.99542969 6.78003906 -1.80335938 5.99757813 -1.60546875 5.19140625 C-1.12308568 3.44549076 -0.57279266 1.71837798 0 0 Z " fill="#AD9AD9" transform="translate(343,396)"/>
<path d="M0 0 C3.08089673 2.77280706 4.68775452 5.06326356 6 9 C5.01 9.33 4.02 9.66 3 10 C3 9.01 3 8.02 3 7 C2.34 7 1.68 7 1 7 C0.67 4.69 0.34 2.38 0 0 Z " fill="#8F6FD2" transform="translate(388,259)"/>
<path d="M0 0 C0.33 0 0.66 0 1 0 C1 1.98 1 3.96 1 6 C1.99 6 2.98 6 4 6 C4 6.99 4 7.98 4 9 C2.125 9.625 2.125 9.625 0 10 C-0.66 9.34 -1.32 8.68 -2 8 C-1.34 8 -0.68 8 0 8 C0 5.36 0 2.72 0 0 Z " fill="#8A64CB" transform="translate(247,471)"/>
<path d="M0 0 C0.99 0 1.98 0 3 0 C3 0.99 3 1.98 3 3 C3.66 3 4.32 3 5 3 C5 3.99 5 4.98 5 6 C0.25 5.25 0.25 5.25 -2 3 C-1.34 3 -0.68 3 0 3 C0 2.01 0 1.02 0 0 Z " fill="#6640BD" transform="translate(314,468)"/>
<path d="M0 0 C0.33 1.32 0.66 2.64 1 4 C1.66 4 2.32 4 3 4 C2.34 5.65 1.68 7.3 1 9 C0.67 8.01 0.34 7.02 0 6 C-0.99 6.33 -1.98 6.66 -3 7 C-1.125 2.25 -1.125 2.25 0 0 Z " fill="#9C7DD5" transform="translate(300,464)"/>
<path d="M0 0 C0.99 0.33 1.98 0.66 3 1 C4.61729417 4.67566856 4.06546005 9.07239675 4 13 C3.67 13 3.34 13 3 13 C3 10.69 3 8.38 3 6 C2.01 6 1.02 6 0 6 C0 4.02 0 2.04 0 0 Z " fill="#9779D5" transform="translate(281,463)"/>
<path d="M0 0 C0.66 0 1.32 0 2 0 C0.74194623 4.50802601 -0.90407165 7.4912812 -4 11 C-4 9.68 -4 8.36 -4 7 C-3.34 7 -2.68 7 -2 7 C-2 5.35 -2 3.7 -2 2 C-1.34 2 -0.68 2 0 2 C0 1.34 0 0.68 0 0 Z " fill="#997BD5" transform="translate(152,431)"/>
<path d="M0 0 C0.66 0.66 1.32 1.32 2 2 C1.7578125 4.1640625 1.7578125 4.1640625 1.125 6.625 C0.92132813 7.44226563 0.71765625 8.25953125 0.5078125 9.1015625 C0.34023438 9.72804688 0.17265625 10.35453125 0 11 C-0.66 10.34 -1.32 9.68 -2 9 C-1.7578125 6.8359375 -1.7578125 6.8359375 -1.125 4.375 C-0.92132813 3.55773437 -0.71765625 2.74046875 -0.5078125 1.8984375 C-0.34023438 1.27195312 -0.17265625 0.64546875 0 0 Z " fill="#A898CF" transform="translate(332,428)"/>
<path d="M0 0 C0.33 0.66 0.66 1.32 1 2 C0.67 2.99 0.34 3.98 0 5 C0.66 5 1.32 5 2 5 C0.84826645 7.46800047 -0.04783565 9.04783565 -2 11 C-2 2 -2 2 0 0 Z " fill="#8056D5" transform="translate(81,312)"/>
<path d="M0 0 C0.33 1.32 0.66 2.64 1 4 C0.34 4 -0.32 4 -1 4 C-1.0825 4.78375 -1.165 5.5675 -1.25 6.375 C-2 9 -2 9 -4.0625 10.3125 C-5.0215625 10.6528125 -5.0215625 10.6528125 -6 11 C-4.54955729 6.89041233 -2.48889248 3.56741255 0 0 Z " fill="#9A7BD6" transform="translate(136,226)"/>
<path d="M0 0 C0.99 0.33 1.98 0.66 3 1 C3 2.98 3 4.96 3 7 C1.68 7.33 0.36 7.66 -1 8 C-0.67 5.36 -0.34 2.72 0 0 Z " fill="#6843B9" transform="translate(274,459)"/>
<path d="M0 0 C1.125 3.75 1.125 3.75 0 6 C-0.66 6 -1.32 6 -2 6 C-2.33 7.65 -2.66 9.3 -3 11 C-3.66 11 -4.32 11 -5 11 C-3.77472971 6.94718288 -2.30119506 3.55639236 0 0 Z " fill="#9A7BD4" transform="translate(155,406)"/>
<path d="M0 0 C0.28875 0.61875 0.5775 1.2375 0.875 1.875 C1.93720042 4.13325765 1.93720042 4.13325765 4 6 C3.01 7.485 3.01 7.485 2 9 C0.68 8.67 -0.64 8.34 -2 8 C-1.34 5.36 -0.68 2.72 0 0 Z " fill="#B6A0DE" transform="translate(194,401)"/>
<path d="M0 0 C3.29148243 1.13499394 3.9959869 1.99283376 5.75 5.125 C6.1625 6.07375 6.575 7.0225 7 8 C6.01 8 5.02 8 4 8 C0 2.74285714 0 2.74285714 0 0 Z " fill="#8969CC" transform="translate(228,30)"/>
<path d="M0 0 C2.18975773 3.28463659 2.99806563 6.20696275 4 10 C2.68 9.34 1.36 8.68 0 8 C0 5.36 0 2.72 0 0 Z " fill="#9476D1" transform="translate(352,400)"/>
<path d="M0 0 C-0.33 1.65 -0.66 3.3 -1 5 C-2.32 5 -3.64 5 -5 5 C-4.625 3.0625 -4.625 3.0625 -4 1 C-2 0 -2 0 0 0 Z " fill="#9981CD" transform="translate(194,476)"/>
<path d="M0 0 C0.99 0.495 0.99 0.495 2 1 C1.67 1.66 1.34 2.32 1 3 C1.66 3 2.32 3 3 3 C3 4.98 3 6.96 3 9 C2.34 9 1.68 9 1 9 C0.67 6.03 0.34 3.06 0 0 Z " fill="#6A46B6" transform="translate(212,463)"/>
<path d="M0 0 C0.99 0 1.98 0 3 0 C3 3.3 3 6.6 3 10 C1.19669467 6.39338934 0.53400897 3.91606575 0 0 Z " fill="#9576D3" transform="translate(352,434)"/>
<path d="M0 0 C2.12508244 3.18762365 2.5020163 5.26512223 3 9 C2.01 9.495 2.01 9.495 1 10 C0.63720544 8.71073008 0.28503302 7.41846728 -0.0625 6.125 C-0.35833984 5.04605469 -0.35833984 5.04605469 -0.66015625 3.9453125 C-1 2 -1 2 0 0 Z " fill="#9272D1" transform="translate(210,415)"/>
<path d="M0 0 C2.97 0.495 2.97 0.495 6 1 C6 1.99 6 2.98 6 4 C4.02 4 2.04 4 0 4 C0 2.68 0 1.36 0 0 Z " fill="#8968CF" transform="translate(305,398)"/>
<path d="M0 0 C0.99 0.33 1.98 0.66 3 1 C3.33 1.99 3.66 2.98 4 4 C0.04 4 -3.92 4 -8 4 C-8 3.67 -8 3.34 -8 3 C-5.36 3 -2.72 3 0 3 C0 2.01 0 1.02 0 0 Z " fill="#704FBA" transform="translate(463,378)"/>
<path d="M0 0 C2.2477975 2.05233685 3.0022242 3.00667261 4 6 C2.125 6.625 2.125 6.625 0 7 C-0.66 6.34 -1.32 5.68 -2 5 C-1.34 3.35 -0.68 1.7 0 0 Z " fill="#8761D1" transform="translate(422,312)"/>
<path d="M0 0 C0.66 0.99 1.32 1.98 2 3 C0.6875 5.5 0.6875 5.5 -1 8 C-1.99 8 -2.98 8 -4 8 C-2.87548273 5.0280615 -1.77706209 2.66559313 0 0 Z " fill="#8D6BD1" transform="translate(95,290)"/>
<path d="M0 0 C4 4.625 4 4.625 4 8 C3.01 8 2.02 8 1 8 C0.67 5.36 0.34 2.72 0 0 Z " fill="#8B68CF" transform="translate(276,84)"/>
<path d="M0 0 C0.66 0.99 1.32 1.98 2 3 C1.25 4.9375 1.25 4.9375 0 7 C-2.125 7.75 -2.125 7.75 -4 8 C-2.87548273 5.0280615 -1.77706209 2.66559313 0 0 Z " fill="#936FD5" transform="translate(236,70)"/>
<path d="M0 0 C0 0.99 0 1.98 0 3 C-2.64 3 -5.28 3 -8 3 C-8 2.34 -8 1.68 -8 1 C-2.25 0 -2.25 0 0 0 Z " fill="#6943BB" transform="translate(256,482)"/>
<path d="M0 0 C2.475 0.495 2.475 0.495 5 1 C5.33 1.99 5.66 2.98 6 4 C5.34 4 4.68 4 4 4 C3.67 4.99 3.34 5.98 3 7 C3 6.01 3 5.02 3 4 C2.34 4 1.68 4 1 4 C0.67 2.68 0.34 1.36 0 0 Z " fill="#A584E2" transform="translate(212,462)"/>
<path d="M0 0 C1.60031344 3.20062687 0.03173691 5.72271806 -1 9 C-1.99 9 -2.98 9 -4 9 C-2.94124926 5.59687262 -1.99097846 2.98646769 0 0 Z " fill="#9E87D2" transform="translate(138,437)"/>
<path d="M0 0 C2.31 0.33 4.62 0.66 7 1 C7 1.99 7 2.98 7 4 C5.68 4.33 4.36 4.66 3 5 C2.01 3.35 1.02 1.7 0 0 Z " fill="#8867D3" transform="translate(258,441)"/>
<path d="M0 0 C0.66 0 1.32 0 2 0 C1.67 2.64 1.34 5.28 1 8 C0.34 8 -0.32 8 -1 8 C-0.67 5.36 -0.34 2.72 0 0 Z " fill="#A08DC4" transform="translate(339,408)"/>
<path d="M0 0 C0.66 0.66 1.32 1.32 2 2 C0 5 0 5 -2.125 5.6875 C-2.74375 5.790625 -3.3625 5.89375 -4 6 C-2.25 1.125 -2.25 1.125 0 0 Z " fill="#7E59C7" transform="translate(131,236)"/>
<path d="M0 0 C0.66 0.33 1.32 0.66 2 1 C1.67 2.32 1.34 3.64 1 5 C-0.32 4.67 -1.64 4.34 -3 4 C-2.67 3.01 -2.34 2.02 -2 1 C-1.34 0.67 -0.68 0.34 0 0 Z " fill="#7A52CF" transform="translate(151,205)"/>
<path d="M0 0 C3.08089673 2.77280706 4.68775452 5.06326356 6 9 C4.68 8.67 3.36 8.34 2 8 C1.34 5.36 0.68 2.72 0 0 Z " fill="#9778D1" transform="translate(302,125)"/>
<path d="M0 0 C2.31 0 4.62 0 7 0 C7 0.33 7 0.66 7 1 C5.35 1.33 3.7 1.66 2 2 C2.66 2.66 3.32 3.32 4 4 C2.35 4 0.7 4 -1 4 C-0.67 2.68 -0.34 1.36 0 0 Z " fill="#9883C5" transform="translate(269,457)"/>
<path d="M0 0 C0.66 0 1.32 0 2 0 C2.20086443 3.71599191 2.1519437 4.77208445 0 8 C-0.66 8 -1.32 8 -2 8 C-1.34 5.36 -0.68 2.72 0 0 Z " fill="#9172D0" transform="translate(307,432)"/>
<path d="M0 0 C0.66 0 1.32 0 2 0 C2 0.66 2 1.32 2 2 C2.99 2.33 3.98 2.66 5 3 C5 3.99 5 4.98 5 6 C5.66 6.33 6.32 6.66 7 7 C6.01 7 5.02 7 4 7 C2.02 3.535 2.02 3.535 0 0 Z " fill="#9F85D5" transform="translate(252,432)"/>
<path d="M0 0 C0.99 0.99 1.98 1.98 3 3 C2.01 3.66 1.02 4.32 0 5 C-0.99 4.34 -1.98 3.68 -3 3 C-2.01 2.01 -1.02 1.02 0 0 Z " fill="#784ECB" transform="translate(240,66)"/>
<path d="M0 0 C0.99 0.33 1.98 0.66 3 1 C3 1.66 3 2.32 3 3 C2.01 3 1.02 3 0 3 C-0.33 3.99 -0.66 4.98 -1 6 C-1.66 6 -2.32 6 -3 6 C-1.125 1.125 -1.125 1.125 0 0 Z " fill="#6E39D8" transform="translate(220,5)"/>
<path d="M0 0 C1.65 0.99 3.3 1.98 5 3 C4.34 4.65 3.68 6.3 3 8 C2.67 8 2.34 8 2 8 C2 6.02 2 4.04 2 2 C1.34 2 0.68 2 0 2 C0 1.34 0 0.68 0 0 Z " fill="#9D85CC" transform="translate(285,3)"/>
<path d="" fill="#FFFFFF" transform="translate(0,0)"/>
<path d="" fill="#FFFFFF" transform="translate(0,0)"/>
<path d="" fill="#FFFFFF" transform="translate(0,0)"/>
<path d="" fill="#FFFFFF" transform="translate(0,0)"/>
<path d="" fill="#FFFFFF" transform="translate(0,0)"/>
<path d="" fill="#FFFFFF" transform="translate(0,0)"/>
<path d="" fill="#FFFFFF" transform="translate(0,0)"/>
<path d="" fill="#FFFFFF" transform="translate(0,0)"/>
<path d="" fill="#FFFFFF" transform="translate(0,0)"/>
<path d="" fill="#FFFFFF" transform="translate(0,0)"/>
<path d="" fill="#FFFFFF" transform="translate(0,0)"/>
<path d="" fill="#FFFFFF" transform="translate(0,0)"/>
<path d="" fill="#FFFFFF" transform="translate(0,0)"/>
<path d="" fill="#FFFFFF" transform="translate(0,0)"/>
<path d="" fill="#FFFFFF" transform="translate(0,0)"/>
<path d="" fill="#FFFFFF" transform="translate(0,0)"/>
<path d="" fill="#FFFFFF" transform="translate(0,0)"/>
<path d="" fill="#FFFFFF" transform="translate(0,0)"/>
<path d="" fill="#FFFFFF" transform="translate(0,0)"/>
<path d="" fill="#FFFFFF" transform="translate(0,0)"/>
<path d="" fill="#FFFFFF" transform="translate(0,0)"/>
<path d="" fill="#FFFFFF" transform="translate(0,0)"/>
<path d="" fill="#FFFFFF" transform="translate(0,0)"/>
<path d="" fill="#FFFFFF" transform="translate(0,0)"/>
<path d="" fill="#FFFFFF" transform="translate(0,0)"/>
<path d="" fill="#FFFFFF" transform="translate(0,0)"/>
<path d="" fill="#FFFFFF" transform="translate(0,0)"/>
<path d="" fill="#FFFFFF" transform="translate(0,0)"/>
<path d="" fill="#FFFFFF" transform="translate(0,0)"/>
<path d="" fill="#FFFFFF" transform="translate(0,0)"/>
<path d="" fill="#FFFFFF" transform="translate(0,0)"/>
<path d="" fill="#FFFFFF" transform="translate(0,0)"/>
<path d="" fill="#FFFFFF" transform="translate(0,0)"/>
<path d="" fill="#FFFFFF" transform="translate(0,0)"/>
<path d="" fill="#FFFFFF" transform="translate(0,0)"/>
<path d="" fill="#FFFFFF" transform="translate(0,0)"/>
<path d="" fill="#FFFFFF" transform="translate(0,0)"/>
<path d="" fill="#FFFFFF" transform="translate(0,0)"/>
<path d="" fill="#FFFFFF" transform="translate(0,0)"/>
<path d="" fill="#FFFFFF" transform="translate(0,0)"/>
<path d="" fill="#FFFFFF" transform="translate(0,0)"/>
<path d="" fill="#FFFFFF" transform="translate(0,0)"/>
<path d="" fill="#FFFFFF" transform="translate(0,0)"/>
<path d="" fill="#FFFFFF" transform="translate(0,0)"/>
<path d="" fill="#FFFFFF" transform="translate(0,0)"/>
<path d="" fill="#FFFFFF" transform="translate(0,0)"/>
<path d="" fill="#FFFFFF" transform="translate(0,0)"/>
<path d="" fill="#FFFFFF" transform="translate(0,0)"/>
<path d="" fill="#FFFFFF" transform="translate(0,0)"/>
<path d="" fill="#FFFFFF" transform="translate(0,0)"/>
<path d="" fill="#FFFFFF" transform="translate(0,0)"/>
<path d="" fill="#FFFFFF" transform="translate(0,0)"/>
<path d="" fill="#FFFFFF" transform="translate(0,0)"/>
<path d="" fill="#FFFFFF" transform="translate(0,0)"/>
<path d="" fill="#FFFFFF" transform="translate(0,0)"/>
<path d="" fill="#FFFFFF" transform="translate(0,0)"/>
<path d="" fill="#FFFFFF" transform="translate(0,0)"/>
<path d="" fill="#FFFFFF" transform="translate(0,0)"/>
<path d="" fill="#FFFFFF" transform="translate(0,0)"/>
<path d="" fill="#FFFFFF" transform="translate(0,0)"/>
<path d="" fill="#FFFFFF" transform="translate(0,0)"/>
<path d="" fill="#FFFFFF" transform="translate(0,0)"/>
<path d="" fill="#FFFFFF" transform="translate(0,0)"/>
<path d="" fill="#FFFFFF" transform="translate(0,0)"/>
</svg>
